<?xml version="1.0" encoding="UTF-8" standalone="no"?>
<!-- Created by: HiData.org -->

<svg
   width="1024pt"
   height="1024pt"
   version="1.1"
   viewBox="0 0 1024 1024"
   id="svg13429"
   sodipodi:docname="enamad.svg"
   inkscape:version="1.2 (dc2aedaf03, 2022-05-15)"
   xmlns:inkscape="http://www.inkscape.org/namespaces/inkscape"
   xmlns:sodipodi="http://sodipodi.sourceforge.net/DTD/sodipodi-0.dtd"
   xmlns="http://www.w3.org/2000/svg"
   xmlns:svg="http://www.w3.org/2000/svg">
  <defs
     id="defs13433" />
  <sodipodi:namedview
     id="namedview13431"
     pagecolor="#ffffff"
     bordercolor="#000000"
     borderopacity="0.25"
     inkscape:showpageshadow="2"
     inkscape:pageopacity="0.0"
     inkscape:pagecheckerboard="0"
     inkscape:deskcolor="#d1d1d1"
     inkscape:document-units="pt"
     showgrid="false"
     inkscape:zoom="0.58007813"
     inkscape:cx="672.32323"
     inkscape:cy="682.66667"
     inkscape:window-width="1920"
     inkscape:window-height="996"
     inkscape:window-x="0"
     inkscape:window-y="40"
     inkscape:window-maximized="1"
     inkscape:current-layer="g13425" />
  <g
     fill="#0f4d94"
     id="g13425"
     style="fill-opacity:1;fill:#0f4d94">
    <path
       d="m537.04 124.09c21.6-3.85 44.58-2.8 64.94 5.9 15.97 6.76 29.68 18.23 40.08 32.03 8.44 11.17 14.94 23.72 20.07 36.72 6.8 18.93 8.57 39.28 8.35 59.26-0.87 43.55-13.56 86.84-36.57 123.84-16.55 26.66-38.49 49.56-62.32 69.79-29.11 24.7-61.35 45.37-94.26 64.59-14.2 8.1-28.02 16.84-42.37 24.68-19.7 10.87-39.7 21.19-59.72 31.43-2.9 1.25-2.14 5.07-2.35 7.62 0.86 16.57 6.41 32.6 13.84 47.31 12.83 25.2 33.7 46.21 58.92 59.03 9.66 5 19.9 8.85 30.38 11.74 4.57 1.28 9.36 1.09 14.05 1.27 15.88 0.34 31.99-2.15 46.5-8.79 17.94-8.1 32.91-21.44 45.94-35.96 21.15-23.56 37.39-50.87 55.05-76.99 21.13-31.74 43.09-63.71 72.49-88.46 31.05-26.49 68.67-43.72 106.74-57.57 0.23 2.11 1.9 4.51 0.36 6.47-11.5 17.81-27.28 32.63-44.96 44.21-5.5 3.45-11.01 7.11-17.3 8.94-13.87 4.65-27.51 10.66-39.27 19.47-4.71 3.58-8.88 7.88-12.06 12.89 11.5 0.53 22.91-1.47 34.4-1.49 5.13-0.06 11.16 1.63 13.23 6.87 3.69 9.33 1.72 19.71-0.09 29.25-0.9 6.1-4.32 11.32-7.43 16.48-9.31 14.89-21.31 28.26-35.85 38.19-10.4 7.37-22.59 11.41-33.82 17.25-8.34 4.31-16.78 8.79-23.69 15.25-4.39 3.97-6.3 9.73-9.37 14.64-15.69 26.63-34.8 51.56-58.38 71.69-15.35 13.04-32.85 23.83-52.11 29.98-33.18 10.88-69.83 9.39-102.58-2.34-34.39-12.27-65.35-34.8-86.54-64.66-7.98-11.49-14.34-24-20.39-36.57-8.29-17.58-15.31-35.77-20.62-54.47-15.46 5.28-30.52 11.63-45.39 18.36-19.86 9.05-38.98 19.6-58.38 29.57-34.35 18.07-68.66 36.24-102.16 55.84-14.26 8.28-28.01 17.55-40.41 28.45-0.5-16.43 6.59-31.97 15.11-45.63 16.09-25.04 38.69-45.1 62.47-62.64 27.92-20.24 57.89-37.64 89.39-51.69 25.35-11.45 50.96-22.32 76.3-33.82 0.49-51.93 7.14-103.86 20.29-154.11 7.23-28.19 18.77-55 30.96-81.34 21.75-46.08 49.53-90.13 87.07-125 28.69-26.73 63.46-47.34 101.46-57.48z"
       id="path13389"
       style="fill-opacity:1;fill:#d4d4d4" />
    <path
       d="m268.32 810.39c10.05-4.64 20.08-9.31 30.14-13.93 0.83 1.91 1.65 3.82 2.47 5.74-8.97 3.94-17.81 8.17-26.76 12.16 5.21 7.25 10.3 14.58 15.7 21.69 2.46 3.23 5.76 6.54 10.1 6.59 4.69 0.11 9.4 0.18 14.09 0.06 2.12-0.06 4.98-1.13 5.09-3.61 0.3-4.11 0.05-8.24 0.11-12.35 2.07-0.01 4.13-0.02 6.21-0.01 0.07 4.05-0.21 8.11 0.11 12.15 0.4 2.45 2.99 3.99 5.37 3.83 4.98 0.05 9.97 0.14 14.95-0.06 2.41-0.04 4.23-2.29 4.33-4.58 0.19-4.71-1.05-9.32-1.94-13.91 1.95-0.6 3.91-1.21 5.87-1.81 1.07 6.75 3.99 14.06 0.92 20.69-2.31 4.84-8.07 6.44-13.05 5.98-6.53-0.47-14.09 1.59-19.56-3.06-6.26 4.48-14.26 2.75-21.43 3.01-5.85 0.09-11.15-3.11-14.68-7.62-4.78 8.22-15.24 7.98-23.51 7.63 1.29 3.61 2 8-0.59 11.24-4.48 5.71-12.39 6.96-19.22 6.8-5.24-0.21-10.78 0.74-15.71-1.54-5.35-2.28-9.4-7.24-10.62-12.91-1.98-8.38 0.76-16.96 4.23-24.55 1.84 0.86 3.69 1.71 5.54 2.55-3 6.87-5.85 14.78-3.18 22.22 1.62 4.86 6.56 8.21 11.68 7.95 6.54-0.23 13.61 1.05 19.61-2.28 2.17-1.12 4.35-4.16 2.17-6.33-3.76-3.11-9.01-2.79-13.58-3.27 0.16-2.05 0.31-4.09 0.44-6.13 8.82 0 17.65-0.01 26.47-0.01 3.59-0.02 7.84-0.4 10.19-3.48 1.38-2.93-0.23-6.19-1.93-8.61-3.71-5.24-7.45-10.46-11.2-15.67 0.39-1.53 0.78-3.06 1.17-4.57z"
       id="path13391"
       style="fill-opacity:1;fill:#d5d5d5" />
    <path
       d="m455.33 810.38c10.04-4.63 20.07-9.3 30.12-13.92 0.84 1.91 1.66 3.81 2.49 5.74-8.97 3.94-17.81 8.17-26.76 12.16 5.19 7.25 10.29 14.57 15.69 21.68 2.46 3.27 5.8 6.55 10.18 6.62 3.31 0.03 7.16 0.64 9.91-1.68 1.11-1.42 1.02-3.33 1.07-5.02-0.05-11.23-0.03-22.47-0.02-33.7 2.08 0 4.16 0 6.25 0.01 0.01 11.23 0 22.48 0.02 33.72 0.02 3.5-0.64 7.42-3.46 9.81-4.07 3.46-9.87 3.46-14.9 3.01-5.1-0.45-9.42-3.59-12.56-7.46-3.87 6.72-12.23 8.11-19.33 7.67-6.53-0.47-14.08 1.6-19.55-3.05-2.85 1.74-6 3.12-9.41 3.01-5.75-0.08-11.62 0.61-17.22-0.99-0.05 5.66-1.75 11.78-6.44 15.35-4.89 3.89-11.45 4-17.41 3.96v-6.28c4.55-0.1 9.7 0.49 13.54-2.5 3.31-2.4 3.98-6.74 4.15-10.54 0.13-7.08 0-14.17 0.05-21.25 2 0 4 0 6.01 0.01 0.24 4.58-0.75 9.39 0.78 13.8 2.73 3.44 7.69 1.79 11.47 2.21 3.64-0.27 8.85 1.12 11-2.75 0.6-4.39 0.14-8.85 0.26-13.26 2.06-0.01 4.13-0.02 6.21-0.01 0.13 4.24-0.34 8.52 0.24 12.73 1.58 4.28 6.81 3.16 10.37 3.23 5.84-0.33 12.29 1.26 17.6-1.91 3.27-1.85 2.2-6.34 0.46-8.9-3.85-5.74-7.99-11.28-11.99-16.92 0.39-1.53 0.78-3.06 1.18-4.58z"
       id="path13393"
       style="fill-opacity:1;fill:#d5d5d5" />
    <path
       d="m510.51 802.24c2.07 0.01 4.15 0.02 6.22 0.04 0.01 15.57 0 31.14 0.01 46.71-2.07 0-4.14 0-6.2 0.01-0.02-15.59 0.02-31.17-0.03-46.76z"
       id="path13395"
       style="fill-opacity:1;fill:#d5d5d5" />
    <path
       d="m559.5 802.25c2 0.01 4 0.01 6.01 0.03-0.08 10.88-0.07 21.76-0.02 32.65 0.21 2.59-0.06 6.33 2.96 7.38 2.6 0.54 5.37 0.65 7.99 0.16 4.03-5.03 3.27-12.5 7.72-17.38 5.32-6.08 16.5-3.71 19.28 3.79 2.5 4.25-0.33 11.11 5.04 13.5 4.48 0.67 9.06 0.28 13.59 0.36 2.2 0.04 4.94-0.53 5.94-2.74 0.58-4.41 0.09-8.88 0.31-13.31 2.04 0.01 4.09 0.04 6.15 0.07 0.03 3.75-0.12 7.51 0.03 11.27-0.08 2.44 2.16 4.55 4.55 4.62 5.7 0.27 11.41-0.03 17.12 0.1-1.37-2.1-2.91-4.22-3.21-6.78-1.52-7.24 4.66-14.67 11.95-14.98 5.03-0.56 9.41 2.39 13.47 4.93-1.04 1.73-2.09 3.46-3.13 5.2-2.37-1.41-4.69-2.97-7.34-3.76-4.13-1.4-9.31 2.07-8.96 6.58-0.15 2.63 1.55 5.08 3.84 6.26 5.07 2.82 11.06 2.6 16.67 2.54 0 2.08 0 4.17 0.01 6.26-13.18-0.02-26.35 0.04-39.52-0.02-3.12 0.1-6.05-1.13-8.47-3.02-3.12 2.03-6.72 3.24-10.47 3.05-6.17-0.22-12.86 1.09-18.4-2.4-1.79 1.88-3.87 3.85-6.65 3.87-5.12 0.54-9.67-2.2-14-4.49-4.52 4.21-11.31 3.47-16.73 1.76-4.05-1.35-5.62-5.91-5.67-9.8-0.09-11.9 0.04-23.8-0.06-35.7m28.5 27.73c-1.91 3.18-2.38 6.95-3.46 10.45 3.36 1.58 6.65 3.76 10.46 3.99 1.92 0.04 3.06-1.77 3.49-3.42 0.89-3.66 0.8-7.91-1.52-11.03-2.07-2.77-7.08-3.13-8.97 0.01z"
       id="path13397"
       style="fill-opacity:1;fill:#d5d5d5" />
    <path
       d="m686.51 802.24c2.07 0.01 4.14 0.02 6.22 0.04 0.01 15.57 0 31.14 0.01 46.71-2.08 0-4.15 0-6.2 0.01-0.02-15.59 0.02-31.17-0.03-46.76z"
       id="path13399"
       style="fill-opacity:1;fill:#d5d5d5" />
    <path
       d="m735.5 802.26c1.99 0 3.98-0.01 5.99-0.01-0.03 10.85-0.06 21.71 0 32.57 0.23 2.51-0.12 5.91 2.49 7.31 2.69 0.84 5.68 0.78 8.45 0.34 4.05-5.02 3.27-12.5 7.73-17.39 5.31-6.05 16.43-3.72 19.24 3.73 2.57 4.28-0.34 11.31 5.2 13.61 4.08 0.55 8.24 0.37 12.35 0.23 2.39-0.07 4.18-2.32 4.28-4.6 0.18-4.67-1-9.26-1.99-13.79 1.96-0.66 3.93-1.31 5.91-1.94 1.02 5.48 2.65 11 2.19 16.62-0.49 5.62-5.61 10.16-11.23 10.02-5.89-0.02-12.24 0.96-17.5-2.36-1.77 1.87-3.84 3.83-6.59 3.87-5.14 0.57-9.72-2.18-14.07-4.48-4.51 4.22-11.31 3.47-16.74 1.76-4.01-1.36-5.59-5.87-5.65-9.73-0.1-11.92 0.04-23.84-0.06-35.76m28.53 27.67c-1.94 3.18-2.4 6.99-3.49 10.5 3.36 1.58 6.65 3.76 10.47 3.99 1.93 0.02 3.07-1.79 3.48-3.45 0.89-3.65 0.79-7.9-1.53-11.01-2.06-2.74-7.02-3.12-8.93-0.03z"
       id="path13401"
       style="fill-opacity:1;fill:#d5d5d5" />
    <path
       d="m343.14 808.77c1.87-1.89 3.74-3.77 5.63-5.63 1.91 1.9 3.82 3.81 5.73 5.72-1.88 1.88-3.76 3.76-5.65 5.64-1.9-1.91-3.8-3.82-5.71-5.73z"
       id="path13403"
       style="fill-opacity:1;fill:#d5d5d5" />
    <path
       d="m794.14 808.77c1.86-1.89 3.74-3.77 5.63-5.63 1.91 1.9 3.82 3.81 5.73 5.72l-5.64 5.64c-1.91-1.91-3.82-3.82-5.72-5.73z"
       id="path13405"
       style="fill-opacity:1;fill:#d5d5d5" />
    <path
       d="m419.48 812.6c1.68-1.82 3.39-3.6 5.13-5.35 1.75 1.74 3.5 3.49 5.24 5.24-1.73 1.75-3.47 3.49-5.21 5.24l-5.16-5.13z"
       id="path13407"
       style="fill-opacity:1;fill:#d5d5d5" />
    <path
       d="m432.02 812.66c1.69-1.74 3.36-3.5 4.99-5.28 1.79 1.78 3.57 3.57 5.35 5.37-1.71 1.7-3.42 3.4-5.13 5.11-1.74-1.74-3.47-3.47-5.21-5.2z"
       id="path13409"
       style="fill-opacity:1;fill:#d5d5d5" />
    <path
       d="m616.48 812.6c1.68-1.82 3.39-3.6 5.14-5.35 1.74 1.74 3.48 3.49 5.23 5.24-1.73 1.75-3.48 3.49-5.21 5.24l-5.16-5.13z"
       id="path13411"
       style="fill-opacity:1;fill:#d5d5d5" />
    <path
       d="m629.01 812.67c1.7-1.74 3.36-3.5 5-5.29 1.78 1.77 3.57 3.56 5.35 5.35-1.69 1.7-3.38 3.39-5.05 5.11-1.8-1.71-3.55-3.44-5.3-5.17z"
       id="path13413"
       style="fill-opacity:1;fill:#d5d5d5" />
    <path
       d="m533.21 818.17c1.74-1.14 3.5-2.25 5.27-3.34 3.8 5.76 7.54 11.56 11.43 17.27 2.06 2.98 3.84 6.69 2.8 10.38-0.98 3.38-4.27 5.46-7.54 6.21-7.6 1.66-16 0.98-22.64-3.33 0.99-1.81 2-3.59 3.01-5.38 5.79 3.57 13.2 4.27 19.63 2.17 2.36-0.72 1.6-3.32 0.59-4.86-4-6.49-8.36-12.76-12.55-19.12z"
       id="path13415"
       style="fill-opacity:1;fill:#d5d5d5" />
    <path
       d="m709.2 818.18c1.74-1.14 3.51-2.26 5.28-3.36 3.8 5.78 7.55 11.59 11.45 17.3 2.05 2.98 3.81 6.68 2.78 10.36-0.99 3.38-4.28 5.47-7.56 6.21-7.58 1.66-15.97 0.98-22.6-3.33 0.96-1.79 1.95-3.58 2.93-5.36 6.43 3.7 15.14 4.87 21.71 0.91-3.29-8.31-9.36-15.15-13.99-22.73z"
       id="path13417"
       style="fill-opacity:1;fill:#d5d5d5" />
    <path
       d="m364.31 825.38c4.37-5.82 14.27-6.24 18.84-0.46 3.77 4.82 3.3 11.32 3.33 17.09-0.08 6.33 0.77 13.6-3.69 18.78-4.86 5.41-12.68 6.25-19.53 6.27v-6.1c4.63-0.35 9.73-0.18 13.66-3.08 2.78-2.04 3.11-5.72 3.54-8.85-5.21-0.05-11.16 0.61-15.37-3.13-5.6-5.2-5.26-14.73-0.78-20.52m4.37 4.32c-1.87 3.2-2.19 7.71-0.15 10.91 3.03 3.15 7.84 1.86 11.73 2.13-0.1-4.2 0.55-8.64-1.13-12.61-1.61-4.26-8.26-4.04-10.45-0.43z"
       id="path13419"
       style="fill-opacity:1;fill:#d5d5d5" />
    <path
       d="m305.29 861.86c1.67-1.8 3.34-3.6 5.01-5.39 1.79 1.73 3.57 3.49 5.33 5.26-1.81 1.8-3.61 3.61-5.42 5.42-1.64-1.77-3.26-3.55-4.92-5.29z"
       id="path13421"
       style="fill-opacity:1;fill:#d5d5d5" />
    <path
       d="m317.64 861.74c1.74-1.76 3.48-3.5 5.22-5.25 1.76 1.76 3.52 3.53 5.26 5.32-1.75 1.72-3.5 3.45-5.23 5.19-1.76-1.76-3.51-3.51-5.25-5.26z"
       id="path13423"
       style="fill-opacity:1;fill:#d5d5d5" />
  </g>
  <path
     d="m907.45 385.75c7.66-2.11 17.14 0.33 21.62 7.22 12.4 16.52 24.92 32.96 37.65 49.22 3.96 4.84 2.38 12.3-2.73 15.64-20.2 14.18-40.55 28.18-60.7 42.44-3.45 2.66-8.25 1.9-12.07 0.57-1.98-1.4-2.93-3.84-4.4-5.71-12.94-18.68-25.5-37.64-39.22-55.75-2.71-3.39-1.84-8.69 1.72-11.12 16.04-12.3 32.16-24.5 48.19-36.81 3.02-2.35 6.18-4.71 9.94-5.7z"
     fill="#ec8d1f"
     id="path13427" />
</svg>
