<?xml version="1.0" encoding="UTF-8" standalone="no"?>
<svg
   width="24px"
   height="24px"
   viewBox="0 0 24 24"
   version="1.1"
   id="svg11508"
   sodipodi:docname="Game.svg"
   inkscape:version="1.2 (dc2aedaf03, 2022-05-15)"
   xmlns:inkscape="http://www.inkscape.org/namespaces/inkscape"
   xmlns:sodipodi="http://sodipodi.sourceforge.net/DTD/sodipodi-0.dtd"
   xmlns="http://www.w3.org/2000/svg"
   xmlns:svg="http://www.w3.org/2000/svg">
  <defs
     id="defs11512" />
  <sodipodi:namedview
     id="namedview11510"
     pagecolor="#ffffff"
     bordercolor="#000000"
     borderopacity="0.25"
     inkscape:showpageshadow="2"
     inkscape:pageopacity="0.0"
     inkscape:pagecheckerboard="0"
     inkscape:deskcolor="#d1d1d1"
     showgrid="false"
     inkscape:zoom="33"
     inkscape:cx="12"
     inkscape:cy="12"
     inkscape:window-width="1920"
     inkscape:window-height="996"
     inkscape:window-x="0"
     inkscape:window-y="40"
     inkscape:window-maximized="1"
     inkscape:current-layer="svg11508" />
  <title
     id="title11498">Iconly/Light/Game</title>
  <g
     id="Iconly/Light/Game"
     stroke="#0a0a0a"
     stroke-width="1.5"
     fill="none"
     fill-rule="evenodd"
     stroke-linecap="round"
     stroke-linejoin="round"
     style="stroke:#fafafa;stroke-opacity:1">
    <g
       id="Game"
       transform="translate(2.000000, 2.000000)"
       stroke="#0a0a0a"
       stroke-width="1.5"
       style="stroke:#fafafa;stroke-opacity:1">
      <line
         x1="6.84825686"
         y1="10.3140022"
         x2="6.84825686"
         y2="14.0589969"
         id="Stroke-1"
         style="stroke:#fafafa;stroke-opacity:1" />
      <line
         x1="8.75903359"
         y1="12.1867073"
         x2="4.93790399"
         y2="12.1867073"
         id="Stroke-2"
         style="stroke:#fafafa;stroke-opacity:1" />
      <line
         x1="13.3661121"
         y1="10.4280345"
         x2="13.2590866"
         y2="10.4280345"
         id="Stroke-3"
         style="stroke:#fafafa;stroke-opacity:1" />
      <line
         x1="15.1796122"
         y1="14.0026039"
         x2="15.0725866"
         y2="14.0026039"
         id="Stroke-4"
         style="stroke:#fafafa;stroke-opacity:1" />
      <path
         d="M6.07216276,5.32907052e-15 L6.07216276,5.32907052e-15 C6.07216276,0.740482877 6.68464554,1.34076212 7.44018226,1.34076212 L8.49666207,1.34076212 C9.66228674,1.34491631 10.6064427,2.27026027 10.611741,3.41266022 L10.611741,4.08771473"
         id="Stroke-5"
         style="stroke:#fafafa;stroke-opacity:1" />
      <path
         d="M14.4283141,19.9626083 C11.4231218,20.013497 8.47303168,20.0114199 5.57274558,19.9626083 C2.35350217,19.9626083 0,17.6663844 0,14.5112835 L0,9.86171565 C0,6.70661469 2.35350217,4.41039079 5.57274558,4.41039079 C8.48892657,4.36054061 11.441136,4.36157916 14.4283141,4.41039079 C17.6475575,4.41039079 20,6.70765324 20,9.86171565 L20,14.5112835 C20,17.6663844 17.6475575,19.9626083 14.4283141,19.9626083 Z"
         id="Stroke-7"
         style="stroke:#fafafa;stroke-opacity:1" />
    </g>
  </g>
</svg>
