<?xml version="1.0" encoding="UTF-8" standalone="no"?>
<svg
   width="24px"
   height="24px"
   viewBox="0 0 24 24"
   version="1.1"
   id="svg2675"
   sodipodi:docname="Scan.svg"
   inkscape:version="1.2 (dc2aedaf03, 2022-05-15)"
   xmlns:inkscape="http://www.inkscape.org/namespaces/inkscape"
   xmlns:sodipodi="http://sodipodi.sourceforge.net/DTD/sodipodi-0.dtd"
   xmlns="http://www.w3.org/2000/svg"
   xmlns:svg="http://www.w3.org/2000/svg">
  <defs
     id="defs2679" />
  <sodipodi:namedview
     id="namedview2677"
     pagecolor="#ffffff"
     bordercolor="#000000"
     borderopacity="0.25"
     inkscape:showpageshadow="2"
     inkscape:pageopacity="0.0"
     inkscape:pagecheckerboard="0"
     inkscape:deskcolor="#d1d1d1"
     showgrid="false"
     inkscape:zoom="33"
     inkscape:cx="12"
     inkscape:cy="12"
     inkscape:window-width="1920"
     inkscape:window-height="996"
     inkscape:window-x="0"
     inkscape:window-y="40"
     inkscape:window-maximized="1"
     inkscape:current-layer="svg2675" />
  <title
     id="title2666">Iconly/Light/Scan</title>
  <g
     id="Iconly/Light/Scan"
     stroke="#0a0a0a"
     stroke-width="1.5"
     fill="none"
     fill-rule="evenodd"
     stroke-linecap="round"
     stroke-linejoin="round"
     style="stroke:#fafafa;stroke-opacity:1">
    <g
       id="Scan"
       transform="translate(1.500000, 3.350100)"
       stroke="#0a0a0a"
       stroke-width="1.5"
       style="stroke:#fafafa;stroke-opacity:1">
      <line
         x1="21"
         y1="9.4555"
         x2="0"
         y2="9.4555"
         id="Stroke-1"
         style="stroke:#fafafa;stroke-opacity:1" />
      <path
         d="M19.1299,5.245 L19.1299,3.732 C19.1299,1.671 17.4589,1.77635684e-15 15.3969,1.77635684e-15 L14.1919,1.77635684e-15"
         id="Stroke-3"
         style="stroke:#fafafa;stroke-opacity:1" />
      <path
         d="M1.8701,5.245 L1.8701,3.732 C1.8701,1.671 3.5411,1.77635684e-15 5.6031,1.77635684e-15 L6.8391,1.77635684e-15"
         id="Stroke-5"
         style="stroke:#fafafa;stroke-opacity:1" />
      <path
         d="M19.1299,9.4545 L19.1299,13.5285 C19.1299,15.5905 17.4589,17.2615 15.3969,17.2615 L14.1919,17.2615"
         id="Stroke-7"
         style="stroke:#fafafa;stroke-opacity:1" />
      <path
         d="M1.8701,9.4545 L1.8701,13.5285 C1.8701,15.5905 3.5411,17.2615 5.6031,17.2615 L6.8391,17.2615"
         id="Stroke-9"
         style="stroke:#fafafa;stroke-opacity:1" />
    </g>
  </g>
</svg>
