<?xml version="1.0" encoding="UTF-8" standalone="no"?>
<svg
   width="24px"
   height="24px"
   viewBox="0 0 24 24"
   version="1.1"
   id="svg12012"
   sodipodi:docname="Show.svg"
   inkscape:version="1.2 (dc2aedaf03, 2022-05-15)"
   xmlns:inkscape="http://www.inkscape.org/namespaces/inkscape"
   xmlns:sodipodi="http://sodipodi.sourceforge.net/DTD/sodipodi-0.dtd"
   xmlns="http://www.w3.org/2000/svg"
   xmlns:svg="http://www.w3.org/2000/svg">
  <defs
     id="defs12016" />
  <sodipodi:namedview
     id="namedview12014"
     pagecolor="#ffffff"
     bordercolor="#000000"
     borderopacity="0.25"
     inkscape:showpageshadow="2"
     inkscape:pageopacity="0.0"
     inkscape:pagecheckerboard="0"
     inkscape:deskcolor="#d1d1d1"
     showgrid="false"
     inkscape:zoom="33"
     inkscape:cx="12"
     inkscape:cy="12"
     inkscape:window-width="1920"
     inkscape:window-height="996"
     inkscape:window-x="0"
     inkscape:window-y="40"
     inkscape:window-maximized="1"
     inkscape:current-layer="svg12012" />
  <title
     id="title12006">Iconly/Light/Show</title>
  <g
     id="Iconly/Light/Show"
     stroke="#0a0a0a"
     stroke-width="1.5"
     fill="none"
     fill-rule="evenodd"
     stroke-linecap="round"
     stroke-linejoin="round"
     style="stroke:#a0a0a0;stroke-opacity:1">
    <g
       id="Show"
       transform="translate(2.000000, 4.000000)"
       stroke="#0a0a0a"
       stroke-width="1.5"
       style="stroke:#a0a0a0;stroke-opacity:1">
      <path
         d="M13.1615,8.0531 C13.1615,9.7991 11.7455,11.2141 9.9995,11.2141 C8.2535,11.2141 6.8385,9.7991 6.8385,8.0531 C6.8385,6.3061 8.2535,4.8911 9.9995,4.8911 C11.7455,4.8911 13.1615,6.3061 13.1615,8.0531 Z"
         id="Stroke-1"
         style="stroke:#a0a0a0;stroke-opacity:1" />
      <path
         d="M9.998,15.3549 C13.806,15.3549 17.289,12.6169 19.25,8.0529 C17.289,3.4889 13.806,0.7509 9.998,0.7509 L10.002,0.7509 C6.194,0.7509 2.711,3.4889 0.75,8.0529 C2.711,12.6169 6.194,15.3549 10.002,15.3549 L9.998,15.3549 Z"
         id="Stroke-3"
         style="stroke:#a0a0a0;stroke-opacity:1" />
    </g>
  </g>
</svg>
