<?xml version="1.0" encoding="UTF-8" standalone="no"?>
<!-- Created with Inkscape (http://www.inkscape.org/) -->

<svg
   width="180"
   height="180"
   viewBox="0 0 180 180"
   version="1.1"
   id="svg5"
   xmlns:inkscape="http://www.inkscape.org/namespaces/inkscape"
   xmlns:sodipodi="http://sodipodi.sourceforge.net/DTD/sodipodi-0.dtd"
   xmlns:xlink="http://www.w3.org/1999/xlink"
   xmlns="http://www.w3.org/2000/svg"
   xmlns:svg="http://www.w3.org/2000/svg">
  <sodipodi:namedview
     id="namedview7"
     pagecolor="#ffffff"
     bordercolor="#000000"
     borderopacity="0.25"
     inkscape:showpageshadow="2"
     inkscape:pageopacity="0.0"
     inkscape:pagecheckerboard="0"
     inkscape:deskcolor="#d1d1d1"
     inkscape:document-units="px"
     showgrid="false" />
  <defs
     id="defs2">
    <linearGradient
       inkscape:collect="always"
       xlink:href="#linearGradient828"
       id="linearGradient830"
       x1="-3822.2532"
       y1="1311.4253"
       x2="-3822.2483"
       y2="1083.8665"
       gradientUnits="userSpaceOnUse"
       gradientTransform="matrix(0.07885909,0,0,0.07885909,311.20744,-6.687927)" />
    <linearGradient
       inkscape:collect="always"
       id="linearGradient828">
      <stop
         style="stop-color:#128cd9;stop-opacity:1"
         offset="0"
         id="stop824" />
      <stop
         style="stop-color:#1fc7fd;stop-opacity:1"
         offset="1"
         id="stop826" />
    </linearGradient>
  </defs>
  <g
     inkscape:label="Layer 1"
     inkscape:groupmode="layer"
     id="layer1">
    <circle
       id="path21"
       cx="9.7882328"
       cy="87.873116"
       style="fill:url(#linearGradient830);fill-opacity:1;stroke-width:0.15099"
       r="9.0885086" />
    <g
       aria-label="com"
       transform="matrix(0.07734311,0,0,0.08040476,311.20743,-6.687924)"
       style="font-style:normal;font-weight:normal;font-size:894.871px;line-height:1.25;font-family:sans-serif;letter-spacing:0px;word-spacing:0px;fill:#005aa1;fill-opacity:1;stroke:none;stroke-width:4.66079"
       id="text25">
      <path
         d="m -3150.284,1233.5278 q -9.8436,42.059 -33.1102,79.6435 -23.2667,37.5846 -57.2718,65.3256 -33.1102,27.741 -76.9589,43.8487 -42.9538,16.1077 -93.0665,16.1077 -56.3769,0 -105.5948,-20.5821 -48.323,-20.582 -84.1178,-56.3768 -34.9,-36.6897 -55.482,-85.0128 -20.582,-48.323 -20.582,-103.805 0,-54.5871 19.6871,-102.9101 20.582,-48.323 55.482,-84.11786 35.7948,-35.79484 83.223,-56.37686 48.323,-20.58203 103.805,-20.58203 49.2179,0 93.0666,16.10767 43.8486,15.21281 77.8537,42.9538 34.9,26.84612 58.1666,65.32558 24.1615,38.4794 34.0051,84.1178 h -150.3383 q -6.2641,-12.5281 -15.2128,-25.0563 -8.9487,-12.5282 -21.4769,-22.3718 -12.5282,-9.8436 -30.4256,-16.1077 -17.0025,-6.2641 -40.2692,-6.2641 -26.8461,-0.8949 -48.323,8.9487 -21.4769,8.9487 -37.5846,25.9513 -15.2128,17.0025 -24.1615,41.164 -8.0538,23.2667 -8.0538,50.1128 0,26.8461 8.0538,50.1128 8.9487,23.2666 24.1615,40.2692 16.1077,17.0025 37.5846,26.8461 21.4769,8.9487 48.323,8.9487 23.2667,0 40.2692,-6.2641 17.8974,-6.2641 30.4256,-15.2128 12.5282,-9.8436 21.4769,-21.4769 8.9487,-11.6333 15.2128,-23.2667 z"
         style="font-style:normal;font-variant:normal;font-weight:bold;font-stretch:normal;font-family:'AvantGarde LT Medium';-inkscape-font-specification:'AvantGarde LT Medium, Bold';fill:#005aa1;fill-opacity:1;stroke-width:4.66079"
         id="path12"
         inkscape:connector-curvature="0" />
      <path
         d="m -2943.2613,1173.5715 q 0,26.8461 8.9488,50.1128 9.8435,23.2666 25.9512,40.2692 17.0026,16.1076 38.4794,25.9512 21.4769,8.9487 45.6385,8.9487 24.1615,0 45.6384,-8.9487 21.4769,-9.8436 37.5845,-25.9512 17.0026,-17.0026 25.9513,-40.2692 9.8436,-23.2667 9.8436,-50.1128 0,-26.8461 -9.8436,-50.1128 -8.9487,-23.2666 -25.9513,-39.3743 -16.1076,-17.0025 -37.5845,-25.9512 -21.4769,-9.8436 -45.6384,-9.8436 -24.1616,0 -45.6385,9.8436 -21.4768,8.9487 -38.4794,25.9512 -16.1077,16.1077 -25.9512,39.3743 -8.9488,23.2667 -8.9488,50.1128 z m -148.5485,0 q 0,-45.6384 16.1077,-92.1717 17.0025,-47.4281 50.1127,-85.01271 33.1103,-38.47945 83.223,-62.64096 50.1128,-24.16151 118.123,-24.16151 68.0101,0 118.1229,24.16151 50.1128,24.16151 83.223,62.64096 33.1102,37.58461 49.2179,85.01271 17.0025,46.5333 17.0025,92.1717 0,45.6384 -17.0025,93.0666 -16.1077,46.5332 -49.2179,85.0127 -33.1102,37.5846 -83.223,61.7461 -50.1128,24.1615 -118.1229,24.1615 -68.0102,0 -118.123,-24.1615 -50.1127,-24.1615 -83.223,-61.7461 -33.1102,-38.4795 -50.1127,-85.0127 -16.1077,-47.4282 -16.1077,-93.0666 z"
         style="font-style:normal;font-variant:normal;font-weight:bold;font-stretch:normal;font-family:'AvantGarde LT Medium';-inkscape-font-specification:'AvantGarde LT Medium, Bold';fill:#005aa1;fill-opacity:1;stroke-width:4.66079"
         id="path14"
         inkscape:connector-curvature="0" />
      <path
         d="m -2472.5453,925.69229 h 138.705 v 52.79738 h 1.7897 q 4.4744,-8.05384 13.4231,-19.68716 8.9487,-11.63332 24.1615,-22.37177 16.1077,-11.63332 40.2692,-19.68715 24.1615,-8.05384 59.0614,-8.05384 16.1077,0 34.9,3.57948 19.6872,3.57948 38.4794,13.42306 18.7923,9.84358 36.6897,26.84613 17.8975,17.00254 33.1103,44.74354 23.2666,-36.68971 61.7461,-62.64096 38.4794,-25.95125 95.7511,-25.95125 13.4231,0 29.5308,1.78974 16.1076,1.78974 33.1102,7.15897 17.8974,5.36922 34.8999,15.2128 17.8975,9.84358 33.1103,25.95125 17.0025,18.79229 27.741,35.79483 10.7384,16.10766 16.1076,37.58456 6.2641,21.4769 8.0539,50.1128 1.7897,27.741 1.7897,68.905 v 271.1459 h -148.5485 v -263.9869 q 0,-15.2128 -1.7898,-34.0051 -0.8949,-19.6871 -8.0538,-35.7948 -7.159,-17.0026 -22.3718,-28.6359 -15.2128,-11.6333 -43.8487,-11.6333 -31.3204,0 -48.323,12.5282 -16.1077,11.6333 -24.1615,28.6358 -7.159,17.0026 -8.9487,34.0051 -0.8949,17.0026 -0.8949,27.741 v 271.1459 h -148.5485 v -270.251 q 0,-9.8436 -1.7898,-26.8461 -0.8948,-17.8974 -8.0538,-34.9 -6.2641,-17.0025 -21.4769,-29.5307 -15.2128,-12.5282 -42.9538,-12.5282 -31.3205,0 -48.323,13.4231 -17.0026,12.5281 -25.0564,30.4256 -8.0538,17.8974 -9.8436,36.6897 -0.8949,18.7922 -0.8949,29.5307 v 263.9869 h -148.5485 z"
         style="font-style:normal;font-variant:normal;font-weight:bold;font-stretch:normal;font-family:'AvantGarde LT Medium';-inkscape-font-specification:'AvantGarde LT Medium, Bold';fill:#005aa1;fill-opacity:1;stroke-width:4.66079"
         id="path16"
         inkscape:connector-curvature="0" />
    </g>
  </g>
</svg>
