<?xml version="1.0" encoding="UTF-8" standalone="no"?>
<svg
   width="64"
   height="64"
   version="1.1"
   viewBox="0 0 64 64"
   id="svg22"
   sodipodi:docname="python.svg"
   inkscape:version="1.2 (dc2aedaf03, 2022-05-15)"
   xmlns:inkscape="http://www.inkscape.org/namespaces/inkscape"
   xmlns:sodipodi="http://sodipodi.sourceforge.net/DTD/sodipodi-0.dtd"
   xmlns="http://www.w3.org/2000/svg"
   xmlns:svg="http://www.w3.org/2000/svg">
  <defs
     id="defs26" />
  <sodipodi:namedview
     id="namedview24"
     pagecolor="#ffffff"
     bordercolor="#000000"
     borderopacity="0.25"
     inkscape:showpageshadow="2"
     inkscape:pageopacity="0.0"
     inkscape:pagecheckerboard="0"
     inkscape:deskcolor="#d1d1d1"
     showgrid="false"
     inkscape:zoom="12.4375"
     inkscape:cx="32.040201"
     inkscape:cy="39.638191"
     inkscape:window-width="1920"
     inkscape:window-height="996"
     inkscape:window-x="0"
     inkscape:window-y="40"
     inkscape:window-maximized="1"
     inkscape:current-layer="svg22" />
  <path
     style="fill:#ffc851;stroke-width:1.28913"
     d="m 47.530759,15.812082 v 7.734813 c 0,4.285089 -3.449727,7.734815 -7.734815,7.734815 H 24.326315 c 0,0 -7.734815,0 -7.734815,7.734816 v 13.535925 c 0,5.357648 6.038313,9.668519 13.535925,9.668519 h 3.867409 c 7.497613,0 13.535925,-4.310871 13.535925,-9.668519 v -5.801112 h 5.80111 c 5.35765,0 9.668519,-6.038312 9.668519,-13.535925 v -3.867407 c 0,-7.497614 -4.310869,-13.535925 -9.668519,-13.535925 z"
     id="path2" />
  <path
     style="opacity:0.2;stroke-width:1.28913"
     d="m 39.795944,53.197018 a 2.5782715,2.5782715 0 0 1 2.578271,2.578272 2.5782715,2.5782715 0 0 1 -2.578271,2.578271 2.5782715,2.5782715 0 0 1 -2.578271,-2.578271 2.5782715,2.5782715 0 0 1 2.578271,-2.578272 z"
     id="path4" />
  <path
     style="fill:#ffffff;stroke-width:1.28913"
     d="m 39.795944,51.907883 a 2.5782715,2.5782715 0 0 1 2.578271,2.578271 2.5782715,2.5782715 0 0 1 -2.578271,2.578272 2.5782715,2.5782715 0 0 1 -2.578271,-2.578272 2.5782715,2.5782715 0 0 1 2.578271,-2.578271 z"
     id="path6" />
  <path
     style="fill:#4795d1;stroke-width:1.28913"
     d="m 30.127425,0.3424516 c -7.497612,0 -13.535925,4.3121592 -13.535925,9.6685184 v 5.801112 h -5.80111 c -5.3563596,0 -9.6685186,6.038311 -9.6685186,13.535925 v 3.867407 c 0,7.497613 4.312159,13.535925 9.6685186,13.535925 h 5.80111 v -7.734813 c 0,-4.285089 3.449728,-7.734816 7.734815,-7.734816 h 15.469629 c 0,0 7.734815,0 7.734815,-7.734815 V 10.01097 c 0,-5.3563592 -6.038312,-9.6685184 -13.535925,-9.6685184 z"
     id="path8" />
  <path
     style="opacity:0.2;stroke-width:1.28913"
     d="M 24.326315,6.7881305 A 2.5782715,2.5782715 0 0 1 26.904587,9.3664021 2.5782715,2.5782715 0 0 1 24.326315,11.944673 2.5782715,2.5782715 0 0 1 21.748044,9.3664021 2.5782715,2.5782715 0 0 1 24.326315,6.7881305 Z"
     id="path10" />
  <path
     style="fill:#ffffff;stroke-width:1.28913"
     d="M 24.326315,5.4989947 A 2.5782715,2.5782715 0 0 1 26.904587,8.0772662 2.5782715,2.5782715 0 0 1 24.326315,10.655538 2.5782715,2.5782715 0 0 1 21.748044,8.0772662 2.5782715,2.5782715 0 0 1 24.326315,5.4989947 Z"
     id="path12" />
  <path
     style="opacity:0.1;fill:#ffffff;stroke-width:1.28913"
     d="m 30.127425,0.3424516 c -7.497612,0 -13.535925,4.3121592 -13.535925,9.6685184 v 1.289136 c 0,-5.3563595 6.038313,-9.6685187 13.535925,-9.6685187 h 3.867409 c 7.497613,0 13.535925,4.3121592 13.535925,9.6685187 V 10.01097 c 0,-5.3563592 -6.038312,-9.6685184 -13.535925,-9.6685184 z M 10.79039,15.812082 c -5.3563596,0 -9.6685186,6.038311 -9.6685186,13.535925 v 1.289135 c 0,-7.497613 4.312159,-13.535925 9.6685186,-13.535925 h 5.80111 v -1.289135 z"
     id="path14" />
  <path
     style="opacity:0.1;fill:#ffffff;stroke-width:1.28913"
     d="m 47.530759,15.812082 v 1.289135 h 5.80111 c 5.35765,0 9.668519,6.038312 9.668519,13.535925 v -1.289135 c 0,-7.497614 -4.310869,-13.535925 -9.668519,-13.535925 z m 0,7.734813 c 0,4.285089 -3.449727,7.734815 -7.734815,7.734815 H 24.326315 c 0,0 -7.734815,0 -7.734815,7.734816 v 1.289135 c 0,-7.734815 7.734815,-7.734815 7.734815,-7.734815 h 15.469629 c 4.285088,0 7.734815,-3.449727 7.734815,-7.734815 z"
     id="path16" />
  <path
     style="opacity:0.2;stroke-width:1.28913"
     d="m 47.530759,23.546895 c 0,7.734815 -7.734815,7.734815 -7.734815,7.734815 H 24.326315 c -4.285087,0 -7.734815,3.449727 -7.734815,7.734816 v 1.289135 c 0,-4.285088 3.449728,-7.734815 7.734815,-7.734815 h 15.469629 c 0,0 7.734815,0 7.734815,-7.734815 z M 1.1218714,33.215414 v 1.289136 c 0,7.497613 4.312159,13.535925 9.6685186,13.535925 h 5.80111 v -1.289136 h -5.80111 c -5.3563596,0 -9.6685186,-6.038312 -9.6685186,-13.535925 z"
     id="path18" />
  <path
     style="opacity:0.2;stroke-width:1.28913"
     d="m 63.000388,33.215414 c 0,7.497613 -4.310869,13.535925 -9.668519,13.535925 h -5.80111 v 1.289136 h 5.80111 c 5.35765,0 9.668519,-6.038312 9.668519,-13.535925 z M 16.5915,52.552451 v 1.289135 c 0,5.356359 6.037023,9.668519 13.535925,9.668519 h 3.867409 c 7.497613,0 13.535925,-4.31087 13.535925,-9.668519 v -1.289135 c 0,5.357648 -6.038312,9.668519 -13.535925,9.668519 h -3.867409 c -7.498902,0 -13.535925,-4.312161 -13.535925,-9.668519 z"
     id="path20" />
</svg>
