<?xml version="1.0" encoding="UTF-8" standalone="no"?>
<svg
   width="24px"
   height="24px"
   viewBox="0 0 24 24"
   version="1.1"
   id="svg22951"
   sodipodi:docname="Chato.svg"
   inkscape:version="1.2 (dc2aedaf03, 2022-05-15)"
   xmlns:inkscape="http://www.inkscape.org/namespaces/inkscape"
   xmlns:sodipodi="http://sodipodi.sourceforge.net/DTD/sodipodi-0.dtd"
   xmlns="http://www.w3.org/2000/svg"
   xmlns:svg="http://www.w3.org/2000/svg">
  <defs
     id="defs22955" />
  <sodipodi:namedview
     id="namedview22953"
     pagecolor="#ffffff"
     bordercolor="#000000"
     borderopacity="0.25"
     inkscape:showpageshadow="2"
     inkscape:pageopacity="0.0"
     inkscape:pagecheckerboard="0"
     inkscape:deskcolor="#d1d1d1"
     showgrid="false"
     inkscape:zoom="33"
     inkscape:cx="12"
     inkscape:cy="12"
     inkscape:window-width="1920"
     inkscape:window-height="996"
     inkscape:window-x="0"
     inkscape:window-y="40"
     inkscape:window-maximized="1"
     inkscape:current-layer="Iconly/Bulk/Chat" />
  <title
     id="title22945">Iconly/Bulk/Chat</title>
  <g
     id="Iconly/Bulk/Chat"
     stroke="none"
     stroke-width="1"
     fill="#9600ff"
     fill-rule="evenodd">
    <g
       id="Chat"
       transform="translate(2.000000, 2.000000)"
       fill="#9600ff"
       fill-rule="nonzero"
       style="fill:#ff5e00;fill-opacity:1">
      <path
         d="M10.02,0 C4.21,0 0,4.74 0,10 C0,11.68 0.49,13.41 1.35,14.99 C1.51,15.25 1.53,15.58 1.42,15.89 L0.75,18.13 C0.6,18.67 1.06,19.07 1.57,18.91 L3.59,18.31 C4.14,18.13 4.57,18.36 5.081,18.67 C6.541,19.53 8.36,19.97 10,19.97 C14.96,19.97 20,16.14 20,9.97 C20,4.65 15.7,0 10.02,0"
         id="Fill-1"
         opacity="0.400000006"
         style="fill:#ff5e00;fill-opacity:1" />
      <path
         d="M5.3701,8.7301 C6.0801,8.7301 6.6501,9.3001 6.6501,10.0101 C6.6501,10.7101 6.0801,11.2801 5.3701,11.2901 C4.6701,11.2901 4.0901,10.7101 4.0901,10.0101 C4.0901,9.3001 4.6601,8.7301 5.3701,8.7301 Z M9.9805,8.7301 C10.6905,8.7301 11.2605,9.3001 11.2605,10.0101 C11.2605,10.7101 10.6905,11.2901 9.9805,11.2901 C9.2705,11.2801 8.7005,10.7101 8.7005,10.0001 C8.7005,9.3001 9.2805,8.7201 9.9805,8.7301 Z M14.5903,8.7301 C15.3003,8.7301 15.8703,9.3001 15.8703,10.0101 C15.8703,10.7101 15.3003,11.2901 14.5903,11.2901 C13.8803,11.2901 13.3103,10.7101 13.3103,10.0101 C13.3103,9.3001 13.8803,8.7301 14.5903,8.7301 Z"
         id="Combined-Shape"
         style="fill:#ff5e00;fill-opacity:1" />
    </g>
  </g>
</svg>
