<?xml version="1.0" encoding="UTF-8" standalone="no"?>
<svg
   width="24px"
   height="24px"
   viewBox="0 0 24 24"
   version="1.1"
   id="svg6483"
   sodipodi:docname="Tick Squareg.svg"
   inkscape:version="1.2 (dc2aedaf03, 2022-05-15)"
   xmlns:inkscape="http://www.inkscape.org/namespaces/inkscape"
   xmlns:sodipodi="http://sodipodi.sourceforge.net/DTD/sodipodi-0.dtd"
   xmlns="http://www.w3.org/2000/svg"
   xmlns:svg="http://www.w3.org/2000/svg">
  <defs
     id="defs6487" />
  <sodipodi:namedview
     id="namedview6485"
     pagecolor="#ffffff"
     bordercolor="#000000"
     borderopacity="0.25"
     inkscape:showpageshadow="2"
     inkscape:pageopacity="0.0"
     inkscape:pagecheckerboard="0"
     inkscape:deskcolor="#d1d1d1"
     showgrid="false"
     inkscape:zoom="33"
     inkscape:cx="12"
     inkscape:cy="12"
     inkscape:window-width="1920"
     inkscape:window-height="996"
     inkscape:window-x="0"
     inkscape:window-y="40"
     inkscape:window-maximized="1"
     inkscape:current-layer="svg6483" />
  <title
     id="title6477">Iconly/Bulk/Tick Square</title>
  <g
     id="Iconly/Bulk/Tick-Square"
     stroke="none"
     stroke-width="1"
     fill="#9600ff"
     fill-rule="evenodd"
     style="fill:#0098b7;fill-opacity:1">
    <g
       id="Tick-Square"
       transform="translate(2.000300, 1.999800)"
       fill="#9600ff"
       fill-rule="nonzero"
       style="fill:#0098b7;fill-opacity:1">
      <path
         d="M14.34,0 L5.67,0 C2.28,0 0,2.38 0,5.92 L0,14.09 C0,17.62 2.28,20 5.67,20 L14.34,20 C17.73,20 20,17.62 20,14.09 L20,5.92 C20,2.38 17.73,0 14.34,0"
         id="Fill-1"
         opacity="0.400000006"
         style="fill:#0098b7;fill-opacity:1" />
      <path
         d="M8.8131,13.2481 C8.5891,13.2481 8.3651,13.1631 8.1941,12.9921 L5.8211,10.6191 C5.4791,10.2771 5.4791,9.7231 5.8211,9.3821 C6.1631,9.0401 6.7161,9.0391 7.0581,9.3811 L8.8131,11.1361 L12.9411,7.0081 C13.2831,6.6661 13.8361,6.6661 14.1781,7.0081 C14.5201,7.3501 14.5201,7.9041 14.1781,8.2461 L9.4321,12.9921 C9.2611,13.1631 9.0371,13.2481 8.8131,13.2481"
         id="Fill-4"
         style="fill:#0098b7;fill-opacity:1" />
    </g>
  </g>
</svg>
