<?xml version="1.0" encoding="UTF-8" standalone="no"?>
<svg
   width="24px"
   height="24px"
   viewBox="0 0 24 24"
   version="1.1"
   id="svg3892"
   sodipodi:docname="Walletr.svg"
   inkscape:version="1.2 (dc2aedaf03, 2022-05-15)"
   xmlns:inkscape="http://www.inkscape.org/namespaces/inkscape"
   xmlns:sodipodi="http://sodipodi.sourceforge.net/DTD/sodipodi-0.dtd"
   xmlns="http://www.w3.org/2000/svg"
   xmlns:svg="http://www.w3.org/2000/svg">
  <defs
     id="defs3896" />
  <sodipodi:namedview
     id="namedview3894"
     pagecolor="#ffffff"
     bordercolor="#000000"
     borderopacity="0.25"
     inkscape:showpageshadow="2"
     inkscape:pageopacity="0.0"
     inkscape:pagecheckerboard="0"
     inkscape:deskcolor="#d1d1d1"
     showgrid="false"
     inkscape:zoom="33"
     inkscape:cx="12"
     inkscape:cy="12"
     inkscape:window-width="1920"
     inkscape:window-height="996"
     inkscape:window-x="0"
     inkscape:window-y="40"
     inkscape:window-maximized="1"
     inkscape:current-layer="Iconly/Bulk/Wallet" />
  <title
     id="title3885">Iconly/Bulk/Wallet</title>
  <g
     id="Iconly/Bulk/Wallet"
     stroke="none"
     stroke-width="1"
     fill="#9600ff"
     fill-rule="evenodd">
    <g
       id="Wallet"
       transform="translate(2.000000, 3.000000)"
       fill="#9600ff"
       fill-rule="nonzero"
       style="fill:#fc573b;fill-opacity:1">
      <path
         d="M14.5137778,0 C17.96,0 19.9964444,1.97862198 19.9964444,5.33785931 L19.9964444,5.33785931 L19.9964444,5.37512639 L15.7617778,5.37512639 C13.7911111,5.3785931 12.1946667,6.93514372 12.1911111,8.85656507 C12.1884444,10.7823198 13.7866667,12.3458038 15.7617778,12.3484039 L15.7617778,12.3484039 L20,12.3484039 L20,12.6543406 C20,16.0135779 17.9635556,18 14.5173333,18 L14.5173333,18 L5.48355556,18 C2.03644444,18 0,16.0135779 0,12.6543406 L0,12.6543406 L0,5.33785931 C0,1.97862198 2.03644444,0 5.48355556,0 L5.48355556,0 Z M10.3831111,3.87490298 L4.73955556,3.87490298 C4.32,3.87664307 3.97955556,4.2085801 3.97777086,4.61851798 C3.976,5.03018922 4.31733333,5.36559295 4.73955556,5.3673263 L4.73955556,5.3673263 L10.3902222,5.3673263 C10.8124444,5.36559295 11.1537778,5.03018922 11.1520069,4.61765131 C11.1502222,4.20598007 10.8053333,3.87317637 10.3831111,3.87490298 L10.3831111,3.87490298 Z"
         id="Fill-1"
         style="fill:#fc573b;fill-opacity:1" />
      <path
         d="M14.0374068,9.29666807 C14.2465311,10.2478511 15.0804781,10.9170733 16.0325888,10.8996683 L19.2825166,10.8996683 C19.6786626,10.8996683 20,10.5715841 20,10.1660477 L20,7.63449087 C19.9991499,7.22982469 19.6786626,6.90087025 19.2825166,6.9 L15.9560799,6.9 C14.873054,6.903481 13.9983023,7.80244909 14,8.91027714 C14,9.03994436 14.012754,9.16961159 14.0374068,9.29666807"
         id="Fill-4"
         opacity="0.400000006"
         style="fill:#fc573b;fill-opacity:1" />
      <circle
         id="Oval"
         cx="16"
         cy="8.9"
         r="1"
         style="fill:#fc573b;fill-opacity:1" />
    </g>
  </g>
</svg>
