<svg id="Layer_1" data-name="Layer 1" xmlns="http://www.w3.org/2000/svg" viewBox="0 0 500 500"><defs><style>.cls-1{fill:#005e9e;}.cls-2{fill:#010101;stroke:#010101;stroke-miterlimit:10;}</style></defs><circle class="cls-1" cx="41" cy="309.26" r="34.5"/><path class="cls-2" d="M171.76,121.76,156,216.26c15-34,46-31,46-31,47,1,50,49,50,49,10,62-33,97-33,97-66,35-82-13-82-13l-13,22H90l38.5-218.5ZM186,220.26s-24-5-33,23c0,0-17,43-3,61,0,0,6.73,15,30.87,5,0,0,31.13-16,23.13-70C204,239.26,203,225.26,186,220.26Z"/><path class="cls-2" d="M287,151.26c0,4.07-.11,10.38,4,16,6.6,9,18.63,9,21,9,2,0,15.76-.21,23-11a25,25,0,0,0,4-14c0-2.62.18-12.17-7-19-6.83-6.5-15.7-6.16-20-6-4,.16-13.76.53-20,8C287.13,140.11,287.05,147.11,287,151.26Z"/><path class="cls-2" d="M285,189.26l-20,114s-8,39,32,38c0,0,23-1,26-4l8-32s-22,5-20-9l18.63-107Z"/><polygon class="cls-2" points="357.55 189.26 352 223.26 415.42 223.26 347 315.26 342.91 338.06 464.1 338.06 470 306.26 398 306.26 467 217.26 468.19 189.26 357.55 189.26"/></svg>
