<svg id="Layer_1" data-name="Layer 1" xmlns="http://www.w3.org/2000/svg" viewBox="0 0 500 500"><defs><style>.cls-1{fill:#ff6e00;}.cls-2{fill:#fff;}</style></defs><path class="cls-1" d="M390.86,1.64H30.94A29.17,29.17,0,0,0,1.76,30.81V468.47a29.17,29.17,0,0,0,29.18,29.18H468.58a29.18,29.18,0,0,0,29.18-29.18V102c0-6.46-1.78-8.77-4.82-11.81-16.89-16.9-72.83-72.85-79.3-79.31C406,3.24,402.59,1.64,390.86,1.64"/><path class="cls-2" d="M373.64,279.82a92.11,92.11,0,1,0,92.1,92.1,92.12,92.12,0,0,0-92.1-92.1m0,139.78a47.67,47.67,0,1,1,47.69-47.68,47.67,47.67,0,0,1-47.69,47.68"/><path class="cls-2" d="M227.08,391.48a34.42,34.42,0,0,0-7.52,7.43,47.67,47.67,0,1,1,0-54,34.42,34.42,0,0,0,7.52,7.43c11.32,7.61,28.95,7.46,44,6.13a92.11,92.11,0,1,0,0,26.83c-15.09-1.34-32.72-1.51-44,6.14"/><path class="cls-2" d="M76.28,432.81A21.26,21.26,0,1,1,55,411.56a21.26,21.26,0,0,1,21.26,21.25"/></svg>
