<svg id="Layer_1" data-name="Layer 1" xmlns="http://www.w3.org/2000/svg" xmlns:xlink="http://www.w3.org/1999/xlink" viewBox="0 0 500 500"><defs><style>.cls-1{font-size:621.11px;fill:#9600ff;font-family:Calibri;}.cls-2{fill:#000;}.cls-3{fill:url(#linear-gradient);}.cls-4{fill:#005aa1;}</style><linearGradient id="linear-gradient" x1="-3907.39" y1="440.42" x2="-3907.39" y2="489.75" gradientTransform="matrix(1, 0, 0, -1, 3937.5, 715.38)" gradientUnits="userSpaceOnUse"><stop offset="0" stop-color="#128cd9"/><stop offset="1" stop-color="#1fc7fd"/></linearGradient></defs><text class="cls-1" transform="translate(-25.75 988.66)">.<tspan class="cls-2" x="156.79" y="0">ir</tspan></text><circle id="path21" class="cls-3" cx="30.11" cy="250.61" r="24.98"/><g id="text25"><path id="path12" class="cls-4" d="M188.91,263.31a59.77,59.77,0,0,1-7,17.61,56.88,56.88,0,0,1-12.17,14.44,55.18,55.18,0,0,1-36.15,13.25,55.07,55.07,0,0,1-40.34-17,62.91,62.91,0,0,1-11.8-18.79A60.07,60.07,0,0,1,77,249.86a61.76,61.76,0,0,1,4.18-22.74A60.4,60.4,0,0,1,93,208.52a56.63,56.63,0,0,1,17.69-12.46,54,54,0,0,1,22.08-4.55,55,55,0,0,1,19.78,3.56,53.22,53.22,0,0,1,16.56,9.5A51.21,51.21,0,0,1,181.49,219a58.45,58.45,0,0,1,7.23,18.59h-32a41.9,41.9,0,0,0-3.24-5.54,23.69,23.69,0,0,0-4.56-4.94,22,22,0,0,0-6.47-3.56,23.74,23.74,0,0,0-8.56-1.39,21.85,21.85,0,0,0-10.28,2,23.15,23.15,0,0,0-8,5.74,28.25,28.25,0,0,0-5.14,9.09,36.75,36.75,0,0,0,0,22.16,28.82,28.82,0,0,0,5.14,8.9A23,23,0,0,0,133.93,278a24,24,0,0,0,8.56-1.38A25.52,25.52,0,0,0,149,273.2a26.42,26.42,0,0,0,4.56-4.74,38.4,38.4,0,0,0,3.24-5.15Z"/><path id="path14" class="cls-4" d="M232.93,250.06a31.65,31.65,0,0,0,1.91,11.08,29.65,29.65,0,0,0,5.51,8.9,30.28,30.28,0,0,0,8.18,5.74,24.89,24.89,0,0,0,19.41,0,27.37,27.37,0,0,0,8-5.74,25.42,25.42,0,0,0,5.52-8.9,30.41,30.41,0,0,0,0-22.16,23.48,23.48,0,0,0-5.52-8.7,23,23,0,0,0-8-5.73,22.69,22.69,0,0,0-19.41,0,25.13,25.13,0,0,0-8.18,5.73,27.13,27.13,0,0,0-5.51,8.7A31.69,31.69,0,0,0,232.93,250.06Zm-31.58,0a64.25,64.25,0,0,1,3.42-20.37,58,58,0,0,1,10.66-18.79,54,54,0,0,1,17.69-13.85q10.66-5.34,25.12-5.34t25.11,5.34a54,54,0,0,1,17.7,13.85,55.37,55.37,0,0,1,10.46,18.79,61.13,61.13,0,0,1,3.62,20.37,62.85,62.85,0,0,1-3.62,20.57,57.93,57.93,0,0,1-10.46,18.79,55.22,55.22,0,0,1-17.7,13.65q-10.65,5.34-25.11,5.34t-25.12-5.34a55.29,55.29,0,0,1-17.69-13.65,60.8,60.8,0,0,1-10.66-18.79A66.07,66.07,0,0,1,201.35,250.06Z"/><path id="path16" class="cls-4" d="M333,195.27h29.49v11.67h.38a35.59,35.59,0,0,1,2.85-4.35,23.93,23.93,0,0,1,5.14-5,31.43,31.43,0,0,1,8.56-4.35,40.93,40.93,0,0,1,20-1,27.93,27.93,0,0,1,8.18,3,34.88,34.88,0,0,1,7.8,5.93,40.06,40.06,0,0,1,7,9.89,46.32,46.32,0,0,1,13.13-13.84q8.19-5.75,20.36-5.74a53.74,53.74,0,0,1,6.28.4,35.58,35.58,0,0,1,7,1.58,33.89,33.89,0,0,1,7.42,3.36,29,29,0,0,1,7,5.74,58.72,58.72,0,0,1,5.9,7.91,26.87,26.87,0,0,1,3.42,8.31,53.31,53.31,0,0,1,1.72,11.08q.38,6.12.38,15.23v59.93H463.54V246.7q0-3.36-.38-7.52a22.62,22.62,0,0,0-1.71-7.91,15.28,15.28,0,0,0-4.76-6.33q-3.22-2.56-9.32-2.57-6.66,0-10.28,2.77a16.19,16.19,0,0,0-5.13,6.33,27.3,27.3,0,0,0-1.91,7.51c-.12,2.51-.19,4.55-.19,6.14v59.93H398.28V245.31c0-1.45-.13-3.42-.38-5.93a23.54,23.54,0,0,0-1.71-7.71,15.13,15.13,0,0,0-4.57-6.53q-3.24-2.77-9.13-2.77-6.66,0-10.28,3a16.8,16.8,0,0,0-5.33,6.72,26.59,26.59,0,0,0-2.09,8.11q-.19,4.16-.19,6.53v58.35H333Z"/></g></svg>
