<svg id="Layer_1" data-name="Layer 1" xmlns="http://www.w3.org/2000/svg" xmlns:xlink="http://www.w3.org/1999/xlink" viewBox="0 0 500 500"><defs><style>.cls-1{fill:#c4c4c4;}.cls-2{fill:none;}.cls-3{mask:url(#mask);}.cls-4{clip-path:url(#clip-path);}.cls-5{fill:#fff;}.cls-6{fill:#075586;}.cls-7{fill:#1d1d1b;}</style><mask id="mask" x="-0.12" y="89.48" width="947.37" height="315.79" maskUnits="userSpaceOnUse"><g id="b"><path class="cls-1" d="M-.12,89.48H947.25V405.27H-.12Z"/></g></mask><clipPath id="clip-path"><rect class="cls-2" x="-0.12" y="131.59" width="500" height="236.84"/></clipPath></defs><g class="cls-3"><g class="cls-4"><path class="cls-5" d="M483.2,278.05v7.27a61.12,61.12,0,0,1-18.3,43.54,63,63,0,0,1-44.18,18H409.38a63.15,63.15,0,0,1-23.91-4.69,62.43,62.43,0,0,1-20.27-13.35,61.62,61.62,0,0,1-13.55-20,60.8,60.8,0,0,1-4.75-23.56v-7.27a60.47,60.47,0,0,1,7.82-29.84h.16v-.28a61.89,61.89,0,0,1,22.91-23,63.12,63.12,0,0,1,31.59-8.44h11.36a63,63,0,0,1,44.17,18,61.15,61.15,0,0,1,18.29,43.54ZM443.29,289V273.42A27.85,27.85,0,0,0,435,253.6a28.77,28.77,0,0,0-31-6.08,28.32,28.32,0,0,0-9.23,6.09,27.71,27.71,0,0,0-8.33,19.81V289a27.76,27.76,0,0,0,8.33,19.82,28.4,28.4,0,0,0,9.23,6.08,28.7,28.7,0,0,0,31-6.08A27.76,27.76,0,0,0,443.29,289Z"/><path class="cls-6" d="M443.29,273.45V289A27.85,27.85,0,0,1,435,308.81,28.64,28.64,0,0,1,414.85,317,29,29,0,0,1,404,314.89a28.56,28.56,0,0,1-9.23-6.08A27.76,27.76,0,0,1,386.41,289V273.45a27.68,27.68,0,0,1,2.16-10.73,28,28,0,0,1,6.17-9.09,28.52,28.52,0,0,1,9.22-6.08,28.79,28.79,0,0,1,31,6.08A27.85,27.85,0,0,1,443.29,273.45Z"/><path class="cls-7" d="M354.86,247.93v.28h-.16A1.56,1.56,0,0,1,354.86,247.93Z"/><path class="cls-5" d="M359.3,189.6V159.7S287.1,142.55,287.1,202v17.15H265.55v29.1H287.1v94.88h39V248.2H354.7a1.64,1.64,0,0,1,.16-.29V219.09H326.14V202S326.54,178.63,359.3,189.6Z"/><path class="cls-6" d="M226.42,275.92v67.17h38.84V275.91s6.06-57.81-36.62-59.41c-27.22-1-40.11,13.15-45.91,23.53V219.09H142.89v124h39.86V271.92S185,247.8,204,246.4,226.42,262.17,226.42,275.92ZM499.88,185.5v129a53.53,53.53,0,0,1-16,38.13,55.11,55.11,0,0,1-38.68,15.79H54.58A55.13,55.13,0,0,1,15.9,352.64a53.57,53.57,0,0,1-16-38.13v-129a53.55,53.55,0,0,1,16-38.12,55.13,55.13,0,0,1,38.68-15.79H445.2a55.11,55.11,0,0,1,38.67,15.79A53.55,53.55,0,0,1,499.88,185.5ZM483.2,285.32v-7.27a61.14,61.14,0,0,0-18.3-43.55,63,63,0,0,0-44.18-18H409.38a63.12,63.12,0,0,0-31.59,8.44,61.89,61.89,0,0,0-22.91,23V219.11H326.14V202s.4-23.3,33.17-12.36V159.7S287.1,142.55,287.1,202v17.15H265.55v29.1H287.1v94.88h39V248.2H354.7A60.42,60.42,0,0,0,346.88,278v7.26a61.14,61.14,0,0,0,18.3,43.55,62.93,62.93,0,0,0,44.18,18h11.36a62.91,62.91,0,0,0,44.17-18A61.09,61.09,0,0,0,483.2,285.32ZM130.72,343.09v-124H91.48v124ZM135,180.43c0-11.21-10.75-20.31-24-20.31s-24,9.1-24,20.31,10.74,20.32,24,20.32,24-9.08,24-20.3ZM76,314.94a30.46,30.46,0,0,0-9.11-21.68,31.43,31.43,0,0,0-44,0,30.35,30.35,0,0,0,0,43.36,31.32,31.32,0,0,0,22,9,31.69,31.69,0,0,0,11.91-2.32,31.21,31.21,0,0,0,10.1-6.64A30.5,30.5,0,0,0,76.05,315Z"/><path class="cls-5" d="M228.64,216.51c-27.22-1-40.11,13.16-45.91,23.54a46.9,46.9,0,0,0-3,6.52,46.9,46.9,0,0,1,3-6.52V219.11H142.89v124h39.86V273.32l-1.61-8.57,1.61,8.57v-1.41S185,247.79,204,246.39s22.46,15.75,22.46,29.51v67.19h38.83V275.91S271.32,218.12,228.64,216.51Z"/><path class="cls-5" d="M130.74,219.11H91.51v124h39.23Z"/><path class="cls-5" d="M111.07,200.76c13.24,0,24-9.09,24-20.31s-10.73-20.32-24-20.32-24,9.1-24,20.32S97.84,200.76,111.07,200.76Z"/><path class="cls-5" d="M44.94,345.62A30.66,30.66,0,1,0,13.84,315,30.88,30.88,0,0,0,44.94,345.62Z"/></g></g></svg>
