<svg id="Layer_1" data-name="Layer 1" xmlns="http://www.w3.org/2000/svg" viewBox="0 0 500 500"><defs><style>.cls-1{fill:#ff9e18;}</style></defs><path class="cls-1" d="M291.66,205.58c0,11-.17,21.47,0,31.78.17,9.81,1.69,28.57,2.2,38.37,0,.34.33.85.33,1.19a1.7,1.7,0,0,0,.85-.68c5.07-7.61,13-21,18.09-30.76,8.45-14.37,12.67-22.15,20.28-32.63,4.23-5.91,7.1-11.83,11.67-17.58,2-2.7,3.88-5.58,5.91-8.28.51-.68,1.69-.85,2-1.69a30.15,30.15,0,0,0,2-4.06,1.21,1.21,0,0,1,1-.51c.34-.16.51-.33.34-.67a1.08,1.08,0,0,1,0-1,29.3,29.3,0,0,1,2.37-2c.17-.17.34-.17.5-.34.51-1,.68-2.37,1.53-3.21a72,72,0,0,1,7.6-6.77c.51-.5,1.86.17,2.71.17-.17.51-.51,1.19-.68,1.69a3.86,3.86,0,0,1-.17.68c2.88,2,1.69,4.23,1,6.76-.51,1.69-.51,4.23,2,5.24.34.17,1,.51,1,.85-.51,4.22,2.2,2.36,3.72,1.69.67-.34,1.69-1,2-.68.17.17-.51,1.35-.85,2a15.39,15.39,0,0,0-.84,1.69,4.86,4.86,0,0,1,1.69-.51c.17,0,.67.17.67.34a4.3,4.3,0,0,1,.17,2c-2.2,4.06-4.73,8.11-6.76,12.17-.34.68.68,2,.85,3,.16.51.5,1,.33,1.36-1.35,2.87-2.53,6.08-4.22,8.62-3.89,6.08-8.29,12.17-12.34,18.25-2.37,3.55-4.74,7.27-6.93,11-4.74,8.28-9.47,16.73-14.2,25.19-6.09,10.81-12.17,21.8-18.26,32.79-4.39,7.94-9,15.89-13.18,23.83-1.19,2.2-1.36,4.74-2,7.1,0,.34-.17.68-.34.68a23.2,23.2,0,0,1-3.38.51,4.58,4.58,0,0,1-3-.85c-1.19-.84-1.69-1.86-3.05-.17a3.53,3.53,0,0,1-3.55.85c-7.77-3.89-15.38-8.12-19.27-16.23-2.7-5.41-4.05-11.66-5.41-17.58-1.52-7.27-2.53-14.88-3.38-22.31-.84-6.6-1.18-13.19-1.52-19.78-.33-6.09-.84-12.17-.84-18.26,0-8.62.51-17.24.84-25.69a175.18,175.18,0,0,0-1.18-32.12c-.34-1.35.68-3.55,1.86-4.56.84-.68,2.87,0,4.39.17a27.38,27.38,0,0,1,3.55.67c2,.51,3.89,1.36,5.92,1.86,1.86.68,3.89,1,5.75,1.86a22.55,22.55,0,0,1,4.73,3.05c3.21,2.87,3.89,6.76,4.4,10.64A105.06,105.06,0,0,1,291.66,205.58Z"/><path class="cls-1" d="M103.18,303c6.43-.34,13.36-.85,20.12-1.35,13-.85,17.58-.68,30.59-1.7,5.92-.5,12.17,2.54,16.57,6.26.34.17-.17,2-.51,2.2-1.86.84-3.89,1.18-5.58,2-.84.33-1.52,1.35-2.19,2a24.67,24.67,0,0,0,2.19,1.36,10.26,10.26,0,0,0,2,.67c-.5.68-1,1.69-1.69,1.86-3.21,1.18-6.25,2-9.46,3-3.55,1-3.05,2-6.6,2.54-7.1,1.18-11.49,2-18.59,3.21-5.07.85-10.14,2-15.21,2.71A99,99,0,0,1,99.13,329c-5.08-.17-10.32-.51-15-2.37-8.62-3.21-16.23-8.28-20.45-16.9-2.54-5.07-1.52-10.48,0-15.89,1.52-5.58,3.38-11,4.73-16.57,1.86-7.43,3.72-15,5.41-22.48,2.54-10.65,5.24-21.3,7.61-32.12,2.19-10.14,4.22-20.45,6.42-30.76,1.18-5.75,2.37-11.33,3.72-17.07.51-2.2,2-2.71,4.06-2.37,3.55.85,7.43,1.18,10.81,2.54,4.57,1.86,9.3,3.88,13.19,6.93,1.69,1.35,1.86,4.9,2.2,7.6a44.6,44.6,0,0,1-2.2,16.91c-2.2,7.27-3.72,14.7-5.58,22.14-1.35,5.07-3.21,10-4.39,15.05-1.19,5.24-1.36,10.64-2.54,15.89-2.7,13.52-5.75,25-8.62,38.37-1,5.07-1.18,5.07,4.06,5.07Z"/><path class="cls-1" d="M201.22,325.26c-.84,1.52-1.18,2.37-1.69,2.7-.33.34-1,.17-1.52.17-1.35,0-3-.84-3.89-.17-2.7,2-5.57,2-8.45,1.69-.67,0-1.69-1.18-1.86-2a77.69,77.69,0,0,1,1.86-22.49c1.52-6.76,2-13.69,2.88-20.45,1.18-8.28,2.19-16.73,3.71-25,1.7-9.29,3.89-18.42,5.75-27.55.68-3,.85-6.09,1.35-9.13.68-3,1.53-6.08,2.2-9,1.19-5.58,2.54-11.15,3.55-16.9s1.69-11.66,2.54-17.58c.5-3.55,2.87-4.56,6.25-3.72,2.37.68,5.07.68,7.61,1.35,2.53.85,4.9,2.2,7.44,3.21.5.17,1.18.17,1.69.34.67.17,1.52,0,2,.34,8.79,5.07,8.11,12,7.09,21.13a258.84,258.84,0,0,1-5.4,29.92c-2.2,9.13-3.72,17.41-6.43,26.37-2,6.93-3.21,14.37-5.24,21.13-1.35,4.73-2.36,9.8-3.72,14.54-1,3.55-2.36,7.1-3.38,10.82-.5,1.69-.34,3.71-1,5.4-1,2.54-2.54,4.91-3.55,7.27a14.82,14.82,0,0,0-1.69,5.75c0,3.38-4.9,9-8.12,8.62a1.61,1.61,0,0,1-.67-1.18C201.06,329.65,201.06,328,201.22,325.26Z"/><path class="cls-1" d="M45.54,303.46c.17,1.18-2,11.15-3.72,16.39-1,3-3.89,7.1-6.25,7.44C33,327.8,16.64,329,8.86,323.91c-9.8-6.25-10.14-18.26-3.21-27.55,4-5.24,5.75-5.75,12.51-4.23,2.53.68,5.24,0,7.77.68a108.21,108.21,0,0,1,16.23,5.75C43.68,299.06,45.37,302.11,45.54,303.46Z"/><path class="cls-1" d="M497.21,234.15c-.51-1.18-4.73,0-5.58.17-2.53.51-5.24.68-7.77,1-1.19.16-2.37.16-3.55.33-3.89.34-7.95.51-11.84.85-2.53.17-5.24.67-7.77.84-2,.17-4.23-.17-6.43,0-6.59.51-13,1-19.6,1.69-5.92.51-11.67,1.19-17.58,1.53-1.19,0-3.38-.85-3.55-1.7a11.33,11.33,0,0,1,.67-5.24c1.35-4.39,2.71-8.79,4.23-13.18,4.9-14.54,19.44-12.51,31.61-13.35,11-.68,19.1-1,28.9-2.37,3.72-.51,10-1.35,13-3.72,2.54-2,3.55-6.09,4.9-8.79,1-2.2,2.54-4.56,0-7.27-1.35-1.35-1.52-3.89-2.2-5.91a11,11,0,0,1-1-1.86c-.84-2.54-4.06-4.57-6.25-4.06a39.13,39.13,0,0,1-6.09,1.35c-6.42.68-12.85,1-19.27,1.69h-.17q-9.12.77-18.26,2c-6.25.85-12.67,1.86-18.93,3.21a25.88,25.88,0,0,0-3.88,1.19c-3.39.67-11,4.22-12.68,5.74-1.52,1.36-10,11.5-12.85,18.26-4.23,9.63-7.94,19.61-11.66,29.41-2.2,5.75-4.23,11.66-5.92,17.58-2.37,8.45-4.39,16.9-6.59,25.36-1,4.22-2.37,8.28-2.88,12.51a38.85,38.85,0,0,0,7.44,27.72c7.61,10,18.43,12.84,30.26,14.87,4.23.68,9-.34,13.35-.84,3.22-.34,3.89-.85,7.1-1.52,2.71-.51,3.89-1.36,6.6-2l13.86-3.21c1-.17,2-.68,2.87-.85,2.37-.51,4.9-.67,7.27-1.35,2.53-.68,5.24-1.52,7.77-2.2l10.15-3.55c.34-.17.67-.17,1-.34,2.71-.67,6.09,0,6.93-3.88,0-.34-.34-1-.67-1a27,27,0,0,1-5.24-.17c-.51,0-1-1-1.53-1.69.51-.17,1-.17,1.53-.34.16,0,.5-.17.67-.17a34,34,0,0,0,3.72-1.69c1.18-.67,3.89-.16,2-3,0,0,.34-.34.51-.34a28.25,28.25,0,0,0,4.73-2c1-.68,3-1.86.34-3.22-1-.5-1.69-1.35,0-2.19.34-.17,0-1.69-.17-2.54,0-.17-.68-.68-.85-.51-4.73.68-9.46,1.19-14.2,1.86-4.9.68-9.63,1.69-14.53,2.2-17.08,1.86-34,3.55-51.05,5.75-2.88.34-7.95,1-9.81-1.86-1.86-3,.68-10,1.36-13.36,1.35-6.76,2.7-13.35,4.22-20.11a3.15,3.15,0,0,1,2.37-1.69c2.87,0,5.74.67,8.62.67,3.89,0,7.94-.67,11.83-.84,2.37-.17,4.9,0,7.27-.34,9.3-1.35,18.59-2.7,27.89-4.39,4.73-.85,11-2.2,14.88-3.22.17-.84.17-1.52.33-1.52a19.75,19.75,0,0,0,3.39-1,24.64,24.64,0,0,0,3.71-1.69c1.19-.68,3.55-1.52,3.55-2s-3.55-1.52-4.05-2.2c-.68-.67-.51-1.52-1.19-2.19a1.8,1.8,0,0,1,1.19-1c.5-.17,1.18-.17,1.69-.34,1.35-.34,3.89-1.69,2.87-3.55a4.15,4.15,0,0,1-.84-1.52,2.37,2.37,0,0,1,1-2.36,10.31,10.31,0,0,1,2.37-1.19,15.29,15.29,0,0,0,5.57-3.72,2.05,2.05,0,0,0,.68-1.35.17.17,0,0,0,.17-.17Z"/></svg>
