<svg id="Layer_1" data-name="Layer 1" xmlns="http://www.w3.org/2000/svg" viewBox="0 0 500 500"><defs><style>.cls-1{fill:#fdcc0f;}.cls-2{fill:#231f20;}</style></defs><path id="path36" class="cls-1" d="M69.1,315.09a32.93,32.93,0,1,1-32.92-32.95A32.92,32.92,0,0,1,69.1,315.09v0"/><path id="path38" class="cls-2" d="M225.64,330.33c0,9.6-4.64,14.24-14.24,14.24h-21c-9.6,0-14.24-4.64-14.24-14.24v-85.4c0-11.43-4-19.17-17.31-19.17a53.83,53.83,0,0,0-27.53,8.09v96.53c0,9.6-4.64,14.24-14.24,14.24H96c-9.6,0-14.23-4.64-14.23-14.24V204.21C81.78,194.64,86.41,190,96,190h7.74c6.83,0,9.6,3.4,13.92,11.14a106,106,0,0,1,53.93-15.48c42.07,0,54.15,22.28,54.15,52Z"/><path id="path40" class="cls-2" d="M365.48,283.62h-77c-1.24,20.12,9.28,26,33.41,26a116.41,116.41,0,0,0,34.63-4.34c12.37-2.7,19.47,4.64,19.47,13.91v5.88c0,8.36-3.11,13.48-11.14,16.4a166.55,166.55,0,0,1-49.51,7.41c-51.05,0-75.8-26-75.8-81.68s24.43-81.68,72.4-81.68c59.7,0,69,40.21,67.77,83.84,0,9.28-4.64,14.24-14.24,14.24m-77-30.31h43.93c2.7-17-.92-30.63-19.79-30.63-16.7,0-24.14,11.13-24.14,30.63"/><path id="path42" class="cls-2" d="M409.71,171c0-9,3.69-12.38,14.85-15.48l16.18-4.34c12.81-3.37,18.48,3.13,18.48,12.59v26h24.26c9.6,0,14.24,4.64,14.24,14.24v12.7c0,9.6-4.64,14.23-14.24,14.23H459.22V290.1c0,12.08,4.63,18.87,20.41,18.87h3.1A12.75,12.75,0,0,1,496,321.17a7.12,7.12,0,0,1,0,.8v10.19a15.23,15.23,0,0,1-12.67,15.48,73.81,73.81,0,0,1-13.91,1.24c-43.93,0-59.71-18.25-59.71-54.77V231H397.68c-9.6,0-14.24-4.63-14.24-14.23V209.6c0-8.09,3.4-12,12.38-14.53l13.91-3.72Z"/></svg>
