<svg id="Layer_1" data-name="Layer 1" xmlns="http://www.w3.org/2000/svg" viewBox="0 0 500 500"><defs><style>.cls-1{fill:#04a746;}.cls-2{fill-rule:evenodd;}</style></defs><path d="M143.94,296.46c.09-27.67-.54-86-.54-86v-3.13H167s.08.89.17,2.86c.27,3,.63,6.07,1,10,5.71-7.4,12.22-12,20.61-13.65,19.55-3.84,35.35,7.41,37.49,27.49s.45,40.08.9,60.16a12,12,0,0,1,0,2.41H199.81v-48.2a35.78,35.78,0,0,0-.89-9.73c-2.77-10.17-14.37-13.57-22.14-6.34-4,3.75-5.71,8.48-5.71,14,0,15.44-.09,35,.09,50.43"/><path class="cls-1" d="M32.18,259c10.54.09,18.57,8.48,18.48,19.28a18.59,18.59,0,0,1-18.74,18.57A18.93,18.93,0,0,1,32.18,259Z"/><path d="M292.64,195.78c-8.3,0-13.92-5.18-13.92-12.85,0-8.66,5.62-14.64,13.92-14.64s14.19,5.8,14.28,13.92S301.3,195.78,292.64,195.78Z"/><path class="cls-2" d="M112.25,293.16c16.6-7.67,23.21-22.22,23.83-39.72,1.07-28.83-17.49-48.56-44.9-48.47-27.58.27-46,18.84-46,46.42a9.76,9.76,0,0,0,.17,1.69,35.7,35.7,0,0,1,14,28.3,43.62,43.62,0,0,1-.36,4.91A9.25,9.25,0,0,0,62.62,290C78.6,300.12,95.38,301,112.25,293.16Zm-35.7-58.64c-2.68,5.26-3.57,11-3.66,16.78.17,7,1.16,13.66,5.17,19.55,7,9.9,20,9.55,25.62-1.07,6.25-11.7,6.52-23.93.45-35.89-2.68-5.44-7.23-8.66-13.48-8.57C84.13,225.41,79.49,228.72,76.55,234.52Z"/><path class="cls-2" d="M481.61,293.43l6.06-1.7-4.1-19s-2.05.72-3.66,1.16c-10.36,2.77-21,4-31.6,1-6.16-1.78-10.89-5.17-12.76-11.78a31.83,31.83,0,0,1-.89-3.66s20.26.09,28.56.09h6.29c6.26,0,12.48,0,18.7.1,2.68.09,3.75-.71,3.75-3.39,0-1.58.07-3.16.15-4.73a57.6,57.6,0,0,0,0-7.77c-.8-10.53-3.39-20.53-10.89-28.47-13-13.84-39-14.91-54.54-1.88-15.17,12.77-18.92,29.82-15.89,48.38,3.13,19.46,14.46,30.44,33.74,34C457.06,298.07,469.46,296.82,481.61,293.43Zm-46.24-52.22s11.16-.09,15.8-.09h15.71a4.54,4.54,0,0,0,.18-1.42c.62-5.81-4.38-13.57-10-15.45-10-3.3-21,4.38-21.69,15.09A6.4,6.4,0,0,0,435.37,241.21Z"/><path d="M266.13,168.2H239.71V296.46h26.42Z"/><path d="M306,208.28H279.61v88.18H306Z"/><path d="M318.88,296.46c.09-27.67-.53-86-.53-86v-3.13h23.56s.09.89.18,2.86c.27,3,.63,6.07,1,10,5.72-7.4,12.23-12,20.62-13.65,19.55-3.84,35.35,7.41,37.49,27.49s.45,40.08.9,60.16a13.51,13.51,0,0,1,0,2.41H374.76v-48.2a35.78,35.78,0,0,0-.89-9.73c-2.77-10.17-14.37-13.57-22.14-6.34-4,3.75-5.71,8.48-5.71,14,0,15.44-.09,35,.09,50.43"/></svg>
