<svg id="Layer_1" data-name="Layer 1" xmlns="http://www.w3.org/2000/svg" viewBox="0 0 500 500"><defs><style>.cls-1{fill:#0033a0;}</style></defs><g id="Layer_2" data-name="Layer 2"><g id="Layer_1-2" data-name="Layer 1-2"><path class="cls-1" d="M436.59,399.46h-8.28a75.19,75.19,0,0,1-53.66-20.57A60.2,60.2,0,0,1,358.4,354.8l45-26.15a28.63,28.63,0,0,0,9.31,19.79,28.3,28.3,0,0,0,20.37,8.16,29.4,29.4,0,0,0,17-5.33A28.84,28.84,0,0,0,460.82,338v-1.34a6.76,6.76,0,0,1,.64-2.06,17.13,17.13,0,0,0,.71-3.53v-2.25h0V313.29l-1.16.58-1.22.45a80.75,80.75,0,0,1-31,6,81.86,81.86,0,0,1-80.84-82.31,79,79,0,0,1,6.43-32.51,81.17,81.17,0,0,1,75.24-49.35,89.87,89.87,0,0,1,40.8,7.07,66.35,66.35,0,0,1,27,20.3C460.83,69.51,338.75,6.68,224.69,43.22A216.86,216.86,0,0,0,86.8,176.37,88.57,88.57,0,0,1,112,161.72a93.61,93.61,0,0,1,65.47,0,84.06,84.06,0,0,1,27.95,16.83,82.29,82.29,0,0,1,19.28,26,79,79,0,0,1,0,64.26A80.82,80.82,0,0,1,205.41,295a87.17,87.17,0,0,1-27.95,17,91.38,91.38,0,0,1-75.5-4.63A83.32,83.32,0,0,1,77.68,288.1C98.66,405.91,211.17,484.4,329,463.42a216.69,216.69,0,0,0,119.77-64.8,85.17,85.17,0,0,1-12.15,1m-104.41-198a18.33,18.33,0,0,0-9.57-2.82h-2.7q-18.06.77-18,25.12v89.57H254.63V223.85q0-64.57,65.28-67.85h2.7a78.63,78.63,0,0,1,9.57.9Zm-187.55,73.9A38.57,38.57,0,0,1,117,264.07a36.27,36.27,0,0,1-11.82-27.18,34.86,34.86,0,0,1,5.46-19.27,39.24,39.24,0,0,1,14.71-13.69,38.84,38.84,0,0,1,19.28-5.2,38.06,38.06,0,0,1,19.27,5.2,40,40,0,0,1,14.65,13.88A34.91,34.91,0,0,1,184,237.09a36.29,36.29,0,0,1-11.82,27.18,38.56,38.56,0,0,1-27.56,11.18m321.26-57.06a37.12,37.12,0,0,1-6.42,45.94,37.73,37.73,0,0,1-53.34.64l-.63-.64a37,37,0,0,1-6.43-45.94,39.48,39.48,0,0,1,14.33-13.88,37.21,37.21,0,0,1,18.76-5,38.52,38.52,0,0,1,33.73,18.89M58,291.7a27.37,27.37,0,1,1-27.56-27.18h.19A27.37,27.37,0,0,1,58,291.9h0"/></g></g></svg>
