<svg id="Layer_1" data-name="Layer 1" xmlns="http://www.w3.org/2000/svg" xmlns:xlink="http://www.w3.org/1999/xlink" viewBox="0 0 500 500"><defs><style>.cls-1{fill:none;}.cls-2{clip-path:url(#clip-path);}.cls-3{fill:#fd5a1f;}.cls-3,.cls-4{fill-rule:evenodd;}.cls-4{fill:#262c48;}</style><clipPath id="clip-path"><rect class="cls-1" x="6.31" y="154.72" width="493.69" height="189.88"/></clipPath></defs><g class="cls-2"><path class="cls-3" d="M31,261.83a24.35,24.35,0,1,0,24.68,24.34A24.54,24.54,0,0,0,31,261.83Z"/><path class="cls-4" d="M120.51,243.69a89.58,89.58,0,0,0-10.73-1.34c-10.94-.86-13.5-2.27-14.61-5.39a4.87,4.87,0,0,1,.68-4.13c1.92-3,6.71-4.61,13.15-4.56,6,0,11.42,2.39,16.75,4.79a14,14,0,0,0,19.3-6.43c2.73-5.74,1.94-14.24-6.81-19.6a55.38,55.38,0,0,0-29-8.49c-22.33-.17-33,11-37.35,17.72a35.4,35.4,0,0,0-3.35,32.16C77,269.42,96.05,271,107.42,272a72.29,72.29,0,0,1,7.54.88c5.82,1.17,5.69,5.63,5.6,6.51-.38,3.92-5,6.32-12,6.27a27.38,27.38,0,0,1-19.92-8.87,2.79,2.79,0,0,0-3.83-.27L66.63,291.4a3,3,0,0,0-.38,4.21,55.81,55.81,0,0,0,42.12,19.77c11.25.09,21.09-3.13,28.46-9.3a35.31,35.31,0,0,0,12.48-23.72,35.62,35.62,0,0,0-28.8-38.67Z"/><path class="cls-4" d="M237.87,206.8a56.7,56.7,0,0,0-41.15-6.1V171.07c0-9-6.78-16.35-15.67-16.35s-15.68,7.32-15.68,16.35v49.41a57,57,0,0,0-10.35,20,15.73,15.73,0,0,0,10.35,19.25v47.88a2.87,2.87,0,0,0,2.85,2.88h25.65a2.86,2.86,0,0,0,2.85-2.88V234.28A24,24,0,0,1,217,231.92c9.73,3.49,9.73,14.54,9.73,28.59v47.13a2.86,2.86,0,0,0,2.85,2.88h25.65a2.86,2.86,0,0,0,2.85-2.88v-55C258.09,216.82,237.87,206.8,237.87,206.8Z"/><path class="cls-4" d="M327.21,283.13A26.17,26.17,0,1,1,353.74,257,26.38,26.38,0,0,1,327.21,283.13Zm0-84.59c-32.67,0-59.25,26.2-59.25,58.42s26.58,58.43,59.25,58.43,59.24-26.21,59.24-58.43S359.87,198.54,327.21,198.54Z"/><path class="cls-4" d="M468.12,261.18c-.83,12.61-11.35,22.77-24.3,23.48a26.24,26.24,0,0,1-13.53-2.88v-33c0-9.75,5.36-14.33,11.93-14.36h.13C457.14,234.4,469.07,246.58,468.12,261.18ZM500,257.34c-1.13-28.7-24.86-52.23-54.3-53.84a58.63,58.63,0,0,0-24.51,3.85c-13.84,5.35-22.67,17.36-22.67,36V257a14.69,14.69,0,0,0-9,5.53,14.14,14.14,0,0,0-2.36,12.85,56.33,56.33,0,0,0,11.4,20.5v45.9a2.85,2.85,0,0,0,2.89,2.82h26a2.85,2.85,0,0,0,2.89-2.82V314.44a59.08,59.08,0,0,0,12.06,1.25c32.54,0,58.87-26.39,57.6-58.35Z"/></g></svg>
