<svg id="Layer_1" data-name="Layer 1" xmlns="http://www.w3.org/2000/svg" xmlns:xlink="http://www.w3.org/1999/xlink" viewBox="0 0 500 500"><defs><style>.cls-1{fill:none;}.cls-2{font-size:621.11px;fill:#9600ff;font-family:Calibri;}.cls-3{fill:#000;}.cls-4{clip-path:url(#clip-path);}.cls-5{fill:#3d3d3d;}.cls-6{fill:#74549c;}</style><clipPath id="clip-path"><rect class="cls-1" x="9" y="116.17" width="483" height="218.65"/></clipPath></defs><text class="cls-2" transform="translate(-25.87 -136.87)">.<tspan class="cls-3" x="156.79" y="0">ir</tspan></text><g class="cls-4"><path class="cls-5" d="M492,244.2a90.84,90.84,0,0,0-6.95-28.8c-6.55-14.83-16.77-26-32-32.21-13.16-5.34-26.86-6.15-40.76-4.07-25.39,3.87-43.64,17.7-54.53,40.89-9.35,19.91-10.69,40.7-5.54,61.88,3.34,13.76,10.15,25.59,21,34.81,13.57,11.56,29.81,16.31,47.18,17.65a160.84,160.84,0,0,0,32-1.07,129.33,129.33,0,0,0,30.07-7.22c1.14-.4,1.4-.8,1.2-2.07-1.93-9.56-3.81-19.11-5.54-28.74-.27-1.53-.8-1.4-1.87-1.07a101.35,101.35,0,0,1-11.76,3,140.58,140.58,0,0,1-25.33,2.68c-9.36.2-18.58-.81-27.26-4.75-9.49-4.34-16-11.09-17.78-21.78-.27-1.54,0-1.94,1.6-1.94q45.62.09,91.15.06c3.88,0,3.88,0,4.41-3.8C492.2,262.24,492,244.2,492,244.2Zm-44.64-4.61c-8.68-.07-17.37,0-26.06,0H396.18c-2.41,0-2.48,0-2.14-2.34,1.27-7.55,4-14.43,9.42-20.05,7.55-7.75,16.84-9.48,27-6.88,9.55,2.47,14.5,9.49,17,18.58a46.12,46.12,0,0,1,1.4,9C449,239.26,448.7,239.59,447.36,239.59Z"/><path class="cls-5" d="M268.68,250.68V217.74c0-1.4-.34-1.74-1.74-1.74-5.55.07-11.09,0-16.64.07-1.2,0-1.6-.34-1.6-1.54.06-10.49.06-21.05,0-31.54,0-1.27.4-1.54,1.6-1.54,5.61.07,11.23,0,16.84.07,1.2,0,1.54-.33,1.54-1.54-.07-9.62,0-19.31-.07-28.93,0-1.61.53-2.14,2-2.47,14.17-3.21,28.4-6.42,42.57-9.69,1.47-.34,1.4.33,1.4,1.4q0,19.74-.06,39.56c0,1.47.4,1.74,1.8,1.74,10-.07,19.91,0,29.87-.07,1.27,0,1.81.13,1.81,1.67-.07,10.49-.07,20.92,0,31.41,0,1.33-.41,1.6-1.68,1.6-10.09-.06-20.11,0-30.2,0-.87,0-1.6-.13-1.6,1.27.06,19.18,0,38.36.13,57.6a35.24,35.24,0,0,0,2,11.76c2.4,6.69,7.41,9.56,14.23,10a61,61,0,0,0,14-.87c1.41-.27,2-.13,2,1.61,0,10.82.07,21.58.27,32.41,0,1.06-.4,1.26-1.14,1.53a58.52,58.52,0,0,1-11.29,2.47c-8.09.94-16.24,1.61-24.39.74-10.29-1.07-19.72-4.28-27.47-11.43-5.94-5.48-9.15-12.49-11.22-20.11-2.34-8.69-2.88-17.51-2.88-26.46S268.68,259.24,268.68,250.68Z"/><path class="cls-5" d="M75.49,328a35,35,0,0,0,10.56-11.83,36.14,36.14,0,0,0,4.47-17.24c0-1.4.34-1.4,1.54-1.07,8.22,2.54,16.64,4.41,25.33,4.14a32.81,32.81,0,0,0,10.82-2c9-3.54,9.16-15.17,2.68-19.78a51,51,0,0,0-12.1-6c-7.88-2.81-15.84-5.41-23.12-9.62S81.84,255.43,77,248.41c-5.62-8.08-7.35-17.11-6-26.73,2.74-19.91,14.9-32,33-39,11.36-4.41,23.32-5.21,35.35-4.41a101.71,101.71,0,0,1,30.54,6.42c4.41,1.74,4.41,1.74,3.21,6.35-2.27,8.75-4.55,17.5-6.75,26.32-.34,1.34-.67,1.41-1.87.81-10.56-5.22-21.65-8.29-33.55-7.82-4.07.2-8,1.07-11.36,3.67a10.3,10.3,0,0,0-.2,16.11c3.74,3.07,8.22,4.88,12.7,6.61,7.28,2.88,14.83,5.08,21.85,8.76,8.22,4.27,15.57,9.55,20.58,17.57,5.41,8.69,7,18.31,5.88,28.27-2.2,19.58-14.1,31.27-31.81,37.95a88.62,88.62,0,0,1-28.86,5.15c-14.24.4-28.27-1.2-41.83-5.81A7.39,7.39,0,0,1,75.49,328Z"/><path class="cls-5" d="M240.21,256.63q0,36.58.07,73.17c0,1.47-.34,1.87-1.88,1.87-14.43-.06-28.8-.06-43.23,0-1.4,0-1.8-.33-1.8-1.8q.09-73.28,0-146.55c0-1.53.33-1.93,1.87-1.93,14.43.06,28.8.06,43.23,0,1.47,0,1.81.4,1.81,1.8Q240.18,220,240.21,256.63Z"/><path class="cls-6" d="M43.41,331.61C24.24,331.61,9,316.17,9,296.72c0-18.57,15.5-33.94,34.41-34.08C62.53,262.51,78,278.15,78,297.59,78,316.3,62.39,331.61,43.41,331.61Z"/><path class="cls-5" d="M216.55,163.21c-9.62-.27-17.64-3.67-22-12.7-6-12.49-1.54-31.4,18.11-34.08,6.08-.8,11.89-.13,17.31,2.88a23.41,23.41,0,0,1,11.56,23.59,22.69,22.69,0,0,1-17.45,19.31A26.52,26.52,0,0,1,216.55,163.21Z"/></g></svg>
