<svg id="Layer_1" data-name="Layer 1" xmlns="http://www.w3.org/2000/svg" xmlns:xlink="http://www.w3.org/1999/xlink" viewBox="0 0 500 500"><defs><style>.cls-1{fill:none;}.cls-2{clip-path:url(#clip-path);}.cls-3{fill:#3d3d3d;}.cls-4{fill:#00acb3;}.cls-5{fill:#0db1b7;}</style><clipPath id="clip-path"><rect class="cls-1" x="2.26" y="182.61" width="495" height="135.45"/></clipPath></defs><g class="cls-2"><path class="cls-3" d="M303.93,248.7c-6.06-24.87-29.18-41.93-57.08-41.93a65,65,0,0,0-13,1.11c-40,7.26-59.56,52.7-36.68,85.62,13.32,19.14,38.27,28.15,63.38,22.81C292.13,309.61,311.43,279.55,303.93,248.7Zm-57.16,37.47c-12.52.08-22.56-10.68-22.48-24.24s9.33-23.51,22-23.51S269,249.1,268.93,262.57,259.29,286.09,246.77,286.17Z"/><path class="cls-3" d="M495.67,298.69C484,312.08,469,318.14,451.34,318.06c-20.41,0-37.79-6.62-49.43-24.24-18-27.34-9.33-74.3,29.58-85.38a68.19,68.19,0,0,1,46.64,3.35c10.92,4.7,16.9,13.55,18.49,25.35a10.78,10.78,0,0,1,.08,2.71,52.67,52.67,0,0,0-8.05-1.43,55.06,55.06,0,0,0-8.13-.4,19.47,19.47,0,0,1-1.36-2.31,12.44,12.44,0,0,0-11.48-7.26c-11.8-.16-23.6-.16-35.39-.08-4.39,0-6.78,2.63-6.78,7q-.12,6.93,0,13.87c.08,4.06,2.55,6.69,6.7,6.77,11.79.08,23.59.16,35.39,0a13.1,13.1,0,0,0,12.84-12.27c.24-2.95,0-3.51,0-3.51a78.85,78.85,0,0,1,8.37.56,78,78,0,0,1,8.29,1.43,16.69,16.69,0,0,1-.24,4c-2.39,17.3-12.44,26.15-30,26.15h-33.4c-4.22,0-4.22,0-2.47,4.06C436,288,449.35,293,462.58,288.16a34.69,34.69,0,0,0,12-7.57"/><path class="cls-3" d="M178.13,237.54c-5.42-.16-13.55-.08-19-.24-2.47-.08-3.18.72-3.1,3.11.15,11.24,0,22.4.07,33.64.08,8.45,3.11,11.4,11.56,11.48,3.75,0,11,.24,11,.24s3.42,6.06,5.26,9.17a70.3,70.3,0,0,0,19.53,21.6c-.72,1.36-1.91.72-2.79.72-15.86.08-31.81,0-47.67,0a46.5,46.5,0,0,1-11-1.19c-14.51-3.35-22.24-13.08-23.28-29.5-.15-3.19-.15-6.3-.15-9.49,0-31.49.08-63.06.08-94.55,12.43,0,24.87,0,37.31-.08.08,7.1.23,14.27.08,21.37-.08,2.71.87,3.34,3.34,3.19,5.42-.16,13.56.15,19,0"/><path class="cls-3" d="M92.91,242.08c-8.06-4.3-19.38-8.37-28.71-8.85a18.34,18.34,0,0,0-5.5.48c-2.15.64-3.9,1.76-4.14,4.23-.16,2.31,1.11,3.74,2.95,4.7,4.22,2.31,8.85,3.51,13.39,4.86,7.26,2.16,14.43,4.23,21.21,7.66,11.8,5.9,18.17,15,17.54,28.38-.64,13.23-6.38,23.2-18.58,29-11.8,5.66-24.31,5.66-37,4.22-2.87-.32-5.66-.95-9.25-1.59,6.46-8.37,7.58-17,4.07-26.71,6.38,1.76,12.28,2.95,18.41,2.63a20.05,20.05,0,0,0,4.31-.64A4.91,4.91,0,0,0,75.53,286c.23-2.31-1.12-3.75-3-4.7C68.51,279,64,278,59.5,276.76c-7.09-2-14.27-3.9-21-7.17-10.76-5.18-17.46-13.24-17.85-25.67-.4-13.87,4.94-24.56,17.38-31.33,10.6-5.74,22-6.3,33.64-5.27s25.19,5.58,35.4,11.17"/><path class="cls-3" d="M351.85,207.17c-.16,5.34,0,15.38,0,21.84,1.83-3.11,3-5.18,4.3-7.26C362.37,212,371.22,206.93,383,207c8.85.08,17.7,0,27.74,0-4.94,3.18-8.77,5.82-12,9.24a54.65,54.65,0,0,0-14.35,27.27c-.24,1.12-.48,2.63-.48,2.63l-2.79.24c-18,1.27-27,10.12-28.7,28-1.19,13.16-.4,26.31-.48,39.54v3.51H314.38v-3c.08-34.28.08-73.26,0-107.54"/><path class="cls-4" d="M2.26,298.69c0-10.85,8.13-18.9,19.13-18.82a19,19,0,0,1,19.06,18.82A19.33,19.33,0,0,1,21.23,317.9,18.82,18.82,0,0,1,2.26,298.69Z"/><path class="cls-5" d="M474.86,239.37c-.88,1.12-2,1-3.27.88a1.72,1.72,0,0,0-1.83,1.2,1.48,1.48,0,0,0,.47,1.75,1.75,1.75,0,0,0,2.47.08c1-.72,2.08-2.39,2.95-.56.64,1.28-.79,2.71-2.23,3.27-2.23.88-4.22.56-5.58-1.51a4.12,4.12,0,0,1,1-6C470.71,236.82,472.31,237.14,474.86,239.37Z"/></g></svg>
