<svg id="Layer_1" data-name="Layer 1" xmlns="http://www.w3.org/2000/svg" xmlns:xlink="http://www.w3.org/1999/xlink" viewBox="0 0 500 500"><defs><style>.cls-1{fill:none;}.cls-2{clip-path:url(#clip-path);}.cls-3{fill:#141414;}.cls-4{fill:#00b345;}</style><clipPath id="clip-path"><rect class="cls-1" x="9.26" y="175.41" width="481.22" height="148.99"/></clipPath></defs><g class="cls-2"><path class="cls-3" d="M121.09,286.21l-1,6.16a3,3,0,0,1-2.91,2.4h-9.93a2.92,2.92,0,0,1-2.91-3.42l8.9-55h28.43l4.28-26.89H117.49l5.14-31.34H90.09L85,209.49H70.23l-4.29,26.89H80.5l-9.42,58.39v10.11L86.15,324.4h48.12l16.27-19.35,3.26-18.84Z"/><path class="cls-3" d="M197.29,278.16H246.1l22.09-17.47,5.31-33.22-16.27-20.38H199.69l-27.91,20.38L160,303.33l15.41,21.07h67.48l16.78-21.07,2.57-16.61H229.66l-1,6.34a5,5,0,0,1-5.13,4.28H196.61a2.59,2.59,0,0,1-2.57-3.08Zm40.59-27.06H200.72l2.91-16.27a3.48,3.48,0,0,1,3.43-2.91h32.83a3.54,3.54,0,0,1,3.43,4.11l-2,12.33A3.37,3.37,0,0,1,237.88,251.1Z"/><path class="cls-3" d="M348.68,245.79h32.54l2.57-18.49-16.27-20.38H310L282.06,227.3l-11.81,75.86,15.41,21.07h67.47l16.79-21.07,2.57-16.61H340l-.52,3.43a8.61,8.61,0,0,1-8.39,7.19H308.61a4.06,4.06,0,0,1-3.94-4.62l8.56-55.49a4.06,4.06,0,0,1,3.94-3.43h28.6a4,4,0,0,1,3.94,4.46Z"/><path class="cls-3" d="M474,206.92H436.71L427.29,216,434,175.41H401.43L377.11,323h32.54l13-78.61,7.88-7H452.8l4.8,8.74L444.93,324.4h29.62l15.93-96.93Z"/><path class="cls-4" d="M33.41,324.4A24.15,24.15,0,1,0,9.26,300.25,24.14,24.14,0,0,0,33.41,324.4Z"/></g></svg>
