<?xml version="1.0" encoding="UTF-8" standalone="no"?>
<!-- Created with Inkscape (http://www.inkscape.org/) -->

<svg
   version="1.1"
   id="svg2"
   width="4129.3335"
   height="2911.6399"
   viewBox="0 0 4129.3335 2911.6399"
   xmlns="http://www.w3.org/2000/svg"
   xmlns:svg="http://www.w3.org/2000/svg">
  <defs
     id="defs6" />
  <g
     id="g10"
     transform="matrix(1.3333333,0,0,-1.3333333,0,2911.64)">
    <path
       d="m 1836.7953,1854.6978 c -0.5633,-137.5187 -139.4116,-248.4284 -310.078,-247.7245 -170.6978,0.6883 -308.6077,112.7244 -308.0446,250.2587 0.4068,97.3628 70.1126,181.3977 171.3549,221.8977 9.7769,3.9264 19.8511,7.4305 30.1599,10.4966 3.7544,1.1263 7.5244,2.19 11.3413,3.1755 27.3285,7.1646 56.3465,11.357 86.4283,12.0296 3.5823,0.1093 7.1802,0.1408 10.7937,0.1408 170.6821,-0.704 308.6076,-112.7401 308.0445,-250.2744"
       style="fill:#fcf0f0;fill-opacity:1;fill-rule:nonzero;stroke:none;stroke-width:0.156431"
       id="path16" />
    <path
       d="m 1527.296,2093.584 c -3.0191,0 -6.0226,-0.047 -9.0105,-0.1251 -28.6112,-0.6414 -56.8002,-4.5678 -83.8627,-11.6698 -3.4885,-0.9073 -7.0551,-1.9085 -10.9502,-3.066 -9.996,-2.9879 -19.8043,-6.3981 -29.1901,-10.168 -100.9295,-40.3594 -163.8461,-121.3594 -164.2216,-211.37 -0.5318,-131.0268 132.5755,-238.151 296.7033,-238.8235 0.5162,0 1.0324,0 1.5486,0 163.4394,0 296.5624,105.7787 297.0943,236.3832 0.2659,63.0104 -30.1443,122.5013 -85.5992,167.5534 -56.1745,45.6467 -131.1364,70.9573 -211.104,71.2702 -0.4694,0 -0.9386,0.015 -1.4079,0.015 z m 1.0168,-498.0145 c -0.5475,0 -1.095,0 -1.6426,0.015 -176.6891,0.7196 -319.9644,118.1056 -319.3856,261.6938 0.4067,99.4903 68.8141,188.5466 178.5194,232.4255 10.0115,4.0204 20.4925,7.6652 31.1454,10.8408 4.1455,1.2514 8.0092,2.3308 11.748,3.2851 28.7208,7.5399 58.693,11.7166 89.0094,12.3892 3.6292,0.1094 7.3522,0.1565 11.091,0.1409 85.1455,-0.3599 165.1757,-27.4694 225.3704,-76.3699 60.9144,-49.4947 94.3125,-115.3054 94.0153,-185.3397 v 0 c -0.5789,-143.1345 -143.9324,-259.0813 -319.8707,-259.0813"
       style="fill:#869edb;fill-opacity:1;fill-rule:nonzero;stroke:none;stroke-width:0.156431"
       id="path18" />
    <path
       d="m 1480.5387,1886.3282 -137.2527,0.5631 c 0,0 3.1129,132.5286 88.2428,205.9105 27.3285,7.1646 56.3465,11.357 86.4283,12.0296 -34.8529,-41.642 -77.2302,-118.3715 -37.4184,-218.5032"
       style="fill:#869edb;fill-opacity:1;fill-rule:nonzero;stroke:none;stroke-width:0.156431"
       id="path20" />
    <path
       d="m 1323.6694,1877.2083 -43.832,9.949 c 0,0 -11.3099,105.0905 110.1902,191.9724 9.7769,3.9264 19.8511,7.4305 30.1599,10.4966 -46.3819,-39.4676 -114.0853,-115.4932 -96.5181,-212.418"
       style="fill:#869edb;fill-opacity:1;fill-rule:nonzero;stroke:none;stroke-width:0.156431"
       id="path22" />
    <path
       d="m 2116.8228,1698.5951 c -0.219,-51.9351 -264.1654,-92.9672 -589.5424,-91.6374 -325.377,1.3297 -588.99501,44.5203 -588.77591,96.4554 0.3597,88.6653 264.69731,225.9494 590.08991,224.6197 325.377,-1.3296 588.5882,-140.7725 588.2284,-229.4377"
       style="fill:#fcf0f0;fill-opacity:1;fill-rule:nonzero;stroke:none;stroke-width:0.156431"
       id="path24" />
    <path
       d="m 1528.5631,1918.819 c -84.9109,0.3442 -251.5102,-9.3076 -413.307,-77.8402 -51.372,-21.7595 -94.3125,-46.6165 -124.20651,-71.9115 -27.8603,-23.5742 -43.2532,-46.9136 -43.3314,-65.6854 -0.047,-11.5446 34.5556,-36.7771 164.56561,-58.0673 110.7378,-18.1461 258.1273,-28.4861 415.0435,-29.1275 156.9006,-0.6413 304.3683,8.4942 415.2467,25.7329 130.1665,20.2266 164.9724,45.1773 165.035,56.722 0.062,18.7717 -15.1269,42.2209 -42.7996,66.0296 -29.675,25.5453 -72.4277,50.762 -123.6119,72.944 -69.2053,29.9722 -214.8271,80.3899 -412.6344,81.2034 z m -1.314,-321.0751 c -157.8548,0.6414 -306.2768,11.0753 -417.953,29.3621 -121.26551,19.8668 -180.14621,44.8488 -180.02111,76.354 0.1093,24.6067 17.3482,52.17 49.8702,79.6862 31.28631,26.4682 75.86921,52.3418 128.93071,74.8211 122.1572,51.7317 271.5178,79.905 420.5654,79.295 149.032,-0.6102 298.158,-29.9879 419.8927,-82.7365 52.8738,-22.9016 97.2377,-49.1351 128.305,-75.8692 32.2874,-27.7822 49.3071,-55.4862 49.1976,-80.0928 -0.1251,-31.5053 -59.2092,-56.0024 -180.6312,-74.868 -111.817,-17.3795 -260.3172,-26.5933 -418.1563,-25.9519"
       style="fill:#869edb;fill-opacity:1;fill-rule:nonzero;stroke:none;stroke-width:0.156431"
       id="path26" />
    <path
       d="m 2116.8228,1698.5951 c -0.219,-51.9351 -264.1654,-92.9672 -589.5424,-91.6374 -325.377,1.3297 -588.99501,44.5203 -588.77591,96.4554 0.2032,51.9352 264.16541,92.9516 589.55801,91.6218 325.3614,-1.3296 588.9637,-44.5046 588.7603,-96.4398"
       style="fill:#869edb;fill-opacity:1;fill-rule:nonzero;stroke:none;stroke-width:0.156431"
       id="path28" />
    <path
       d="m 1526.7642,1617.4542 c -55.1108,0.219 -106.9835,3.6292 -146.0599,9.6049 -51.7944,7.9155 -64.6999,17.708 -67.1872,26.7966 l -33.5232,37.8095 c -4.2238,3.9577 -5.1154,8.0718 -5.0997,10.872 0.062,17.223 31.7712,24.591 79.3576,30.3476 46.2879,5.6002 107.7341,8.5412 173.0129,8.2753 65.2787,-0.266 126.6937,-3.7074 172.9347,-9.6989 65.7325,-8.4941 79.1699,-18.537 79.123,-30.9733 -0.015,-2.8158 -0.9385,-6.9143 -5.2092,-10.8407 l -33.8204,-37.5434 c -2.5655,-9.0574 -15.5492,-18.7562 -67.4062,-26.2493 -39.1235,-5.6471 -91.0118,-8.635 -146.1224,-8.4003"
       style="fill:#fcf0f0;fill-opacity:1;fill-rule:nonzero;stroke:none;stroke-width:0.156431"
       id="path30" />
    <path
       d="m 1770.6561,1700.003 c 0.062,16.8007 -108.6728,30.8795 -242.8751,31.427 -134.2025,0.5475 -243.0473,-12.6239 -243.1098,-29.4403 -0.015,-1.4705 0.8447,-2.9253 2.4559,-4.3645 v 0 l 35.6664,-40.2028 409.3805,-1.6738 35.9792,39.9212 c 1.6268,1.4079 2.5029,2.8628 2.5029,4.3332"
       style="fill:#fcf0f0;fill-opacity:1;fill-rule:nonzero;stroke:none;stroke-width:0.156431"
       id="path32" />
    <path
       d="m 1059.6134,1635.0996 c 0,0 -2.8,0.4537 -8.0405,1.2984 -5.2561,0.9074 -12.9682,2.19 -22.6669,4.4583 -9.683,2.2683 -21.478,5.1779 -34.63381,9.996 -6.5858,2.409 -13.5158,5.2404 -20.6177,8.9791 -3.551,1.8772 -7.1176,4.0203 -10.6217,6.6014 -3.4884,2.5968 -6.9925,5.5533 -9.949,9.6518 -1.4548,2.0649 -2.8314,4.3801 -3.6292,7.1803 -0.3911,1.3922 -0.6883,2.8627 -0.7509,4.3957 l -0.032,0.2816 c 0,0.2032 -0.015,-0.032 -0.015,0.5162 l 0.015,0.4066 c 0.015,0.3129 0,0.4694 0.032,0.9074 0.062,0.8916 0.1878,1.7677 0.3441,2.4715 1.3297,6.1009 5.0685,10.5279 8.8071,14.0632 3.817,3.5667 8.025,6.3512 12.3738,8.8541 4.3488,2.5185 8.8696,4.7086 13.4687,6.7422 18.47451,8.0249 38.51331,13.9223 59.41261,18.8968 20.8992,4.9276 42.5962,9.292 64.7625,12.7492 22.1664,3.504 44.7394,6.5076 67.3281,9.12 22.6199,2.4559 45.2711,4.4582 67.5782,6.179 22.2915,1.8145 44.2857,2.8157 65.5447,3.8325 21.2591,1.0324 41.8454,1.5018 61.3367,1.8459 19.5069,0.4067 37.9503,0.4224 54.97,0.2815 17.0197,-0.047 32.6159,-0.391 46.4444,-0.7664 13.8128,-0.3286 25.8581,-0.8604 35.7758,-1.2827 9.9177,-0.4068 17.708,-0.9386 23.0111,-1.2202 5.3186,-0.3285 8.15,-0.5006 8.15,-0.5006 0,0 -45.2555,-2.409 -113.1311,-6.0538 -16.9414,-0.9856 -35.2908,-2.0806 -54.704,-3.2226 -19.3817,-1.314 -39.8273,-2.6906 -60.9769,-4.1142 -21.1338,-1.4547 -42.9403,-3.4414 -65.091,-5.2404 -22.1507,-1.9084 -44.6142,-4.1454 -67.0152,-6.6953 -22.4322,-2.3933 -44.8019,-5.1622 -66.7179,-8.4315 -21.9003,-3.3164 -43.4409,-6.711 -63.9804,-11.091 -20.4768,-4.4583 -40.2654,-9.1825 -57.84821,-15.9716 -8.6976,-3.3947 -17.0041,-7.3836 -23.2144,-12.3738 -3.0505,-2.4873 -5.3813,-5.3343 -6.0852,-7.9467 -0.7352,-2.5028 -0.062,-5.3969 1.8459,-8.3691 1.8303,-2.9408 4.5521,-5.6472 7.4461,-8.0718 2.9097,-2.409 6.0383,-4.5678 9.1825,-6.5858 6.3355,-3.989 12.7961,-7.227 18.9908,-10.0585 12.42061,-5.569 23.73051,-9.6205 33.10091,-12.7335 9.3858,-3.066 16.8475,-5.3656 21.9472,-6.7892 5.131,-1.4391 7.8528,-2.19 7.8528,-2.19"
       style="fill:#fcf0f0;fill-opacity:1;fill-rule:nonzero;stroke:none;stroke-width:0.156431"
       id="path34" />
    <path
       d="m 1252.7592,1711.5633 c -0.015,-6.7266 -19.8199,-12.1078 -44.2232,-12.014 -24.4033,0.1093 -44.1605,5.6472 -44.1293,12.3894 0.032,6.7265 19.8356,12.1078 44.2232,11.9982 24.4033,-0.094 44.1606,-5.6314 44.1293,-12.3736"
       style="fill:#fcf0f0;fill-opacity:1;fill-rule:nonzero;stroke:none;stroke-width:0.156431"
       id="path36" />
    <path
       d="m 1257.984,1708.8726 c -0.032,-6.7422 -19.8356,-12.1234 -44.2389,-12.0139 -24.3876,0.094 -44.1448,5.6316 -44.1292,12.3737 0.032,6.7266 19.8355,12.1077 44.2388,12.0139 24.4033,-0.1093 44.1449,-5.6472 44.1293,-12.3737"
       style="fill:#869edb;fill-opacity:1;fill-rule:nonzero;stroke:none;stroke-width:0.156431"
       id="path38" />
    <path
       d="m 1248.2695,1706.1976 c -0.015,-5.4438 -16.9571,-9.7769 -37.8406,-9.6986 -20.8836,0.094 -37.7782,4.5677 -37.7626,10.0115 0.015,5.4438 16.9729,9.7926 37.8408,9.6988 20.8835,-0.079 37.7938,-4.5678 37.7624,-10.0117"
       style="fill:#fcf0f0;fill-opacity:1;fill-rule:nonzero;stroke:none;stroke-width:0.156431"
       id="path40" />
    <path
       d="m 1252.7279,1704.0233 c -0.015,-5.4438 -16.9572,-9.7926 -37.8407,-9.6988 -20.868,0.079 -37.7782,4.5522 -37.7626,9.996 0.032,5.4438 16.9729,9.7926 37.8407,9.6987 20.8837,-0.079 37.7939,-4.5677 37.7626,-9.9959"
       style="fill:#869edb;fill-opacity:1;fill-rule:nonzero;stroke:none;stroke-width:0.156431"
       id="path42" />
    <path
       d="m 1233.9248,1702.3494 c -0.015,-1.5487 -10.5277,-2.7845 -23.4803,-2.7218 -12.9681,0.047 -23.4647,1.3609 -23.4647,2.9252 0.015,1.5487 10.5279,2.7689 23.4804,2.7218 12.9681,-0.047 23.4646,-1.3609 23.4646,-2.9252"
       style="fill:#fcf0f0;fill-opacity:1;fill-rule:nonzero;stroke:none;stroke-width:0.156431"
       id="path44" />
    <path
       d="m 1255.4341,1651.3216 c -0.015,-3.5041 -10.3557,-6.3199 -23.1049,-6.273 -12.7647,0.062 -23.0736,2.9566 -23.0736,6.4763 0.015,3.5197 10.3714,6.3199 23.1205,6.273 12.7492,-0.047 23.0737,-2.9566 23.058,-6.4763"
       style="fill:#fcf0f0;fill-opacity:1;fill-rule:nonzero;stroke:none;stroke-width:0.156431"
       id="path46" />
    <path
       d="m 1258.1561,1649.9137 c -0.015,-3.5197 -10.3558,-6.3198 -23.1049,-6.2729 -12.7493,0.047 -23.0736,2.9409 -23.058,6.4606 0.015,3.5197 10.3558,6.3354 23.1049,6.2885 12.7491,-0.062 23.0736,-2.9565 23.058,-6.4762"
       style="fill:#869edb;fill-opacity:1;fill-rule:nonzero;stroke:none;stroke-width:0.156431"
       id="path48" />
    <path
       d="m 1253.0877,1648.5215 c -0.015,-2.8471 -8.8697,-5.1154 -19.7729,-5.0685 -10.9189,0.047 -19.7416,2.3934 -19.7416,5.2405 0.015,2.8314 8.8696,5.0997 19.7728,5.0684 10.9189,-0.047 19.7573,-2.3934 19.7417,-5.2404"
       style="fill:#fcf0f0;fill-opacity:1;fill-rule:nonzero;stroke:none;stroke-width:0.156431"
       id="path50" />
    <path
       d="m 1255.4185,1647.3795 c -0.015,-2.8471 -8.8696,-5.1153 -19.7729,-5.0684 -10.9189,0.047 -19.7416,2.3934 -19.7416,5.2405 0.015,2.8314 8.8696,5.0997 19.7729,5.0684 10.9189,-0.047 19.7572,-2.3935 19.7416,-5.2405"
       style="fill:#869edb;fill-opacity:1;fill-rule:nonzero;stroke:none;stroke-width:0.156431"
       id="path52" />
    <path
       d="m 1245.5789,1646.5191 c 0,-0.8134 -5.4907,-1.4548 -12.2641,-1.4234 -6.7735,0.015 -12.2642,0.7038 -12.2486,1.5172 0,0.8136 5.4907,1.4549 12.2642,1.4236 6.7735,-0.032 12.2642,-0.704 12.2485,-1.5174"
       style="fill:#fcf0f0;fill-opacity:1;fill-rule:nonzero;stroke:none;stroke-width:0.156431"
       id="path54" />
    <path
       d="m 1407.6574,1893.3051 c -254.8109,-38.0911 -298.3613,-74.1954 -343.9454,-93.7649 -47.9306,-20.5707 -81.39111,-46.116 -116.35361,-78.4973 24.9039,7.1646 77.16751,27.5946 112.83391,34.1647 66.3112,12.2329 250.7593,29.9252 335.545,35.9636 0,0 -193.5367,-12.2643 -190.7366,19.3661 3.5197,39.9838 202.6567,82.7678 202.6567,82.7678"
       style="fill:#869edb;fill-opacity:1;fill-rule:nonzero;stroke:none;stroke-width:0.156431"
       id="path56" />
    <path
       d="m 2106.4202,1717.5233 c -22.6043,6.5075 -67.9225,27.4223 -102.7597,35.5256 -3.5667,0.8134 -6.9925,1.5486 -10.3089,2.1587 -1.5017,0.2815 -3.0817,0.5944 -4.7398,0.8603 -69.5181,12.1235 -245.6284,29.0024 -329.1627,34.9937 18.8969,-1.0794 191.7378,-10.4027 189.0941,19.4757 -3.4727,39.3738 -196.4776,81.4225 -202.5159,82.7521 172.5907,-25.7954 248.2408,-50.7306 293.2305,-70.1594 8.8383,-3.8325 16.4565,-7.4461 23.4333,-10.8094 9.949,-4.7555 18.5058,-9.0574 27.1564,-12.7804 47.8993,-20.5864 86.4753,-45.4589 116.5727,-82.0169"
       style="fill:#869edb;fill-opacity:1;fill-rule:nonzero;stroke:none;stroke-width:0.156431"
       id="path58" />
    <path
       d="m 1802.6307,1709.3263 c -0.015,-6.7422 19.7416,-12.2799 44.1292,-12.3738 24.4033,-0.1093 44.2074,5.2718 44.2388,12.014 0.015,6.7266 -19.7417,12.2642 -44.1293,12.3736 -24.4033,0.094 -44.2075,-5.2873 -44.2387,-12.0138"
       style="fill:#fcf0f0;fill-opacity:1;fill-rule:nonzero;stroke:none;stroke-width:0.156431"
       id="path60" />
    <path
       d="m 1797.4059,1706.667 c -0.032,-6.7422 19.7259,-12.2799 44.1292,-12.3738 24.3876,-0.1093 44.1918,5.2717 44.2231,12.0139 0.032,6.7265 -19.726,12.2643 -44.1293,12.3737 -24.4032,0.094 -44.2074,-5.2873 -44.223,-12.0138"
       style="fill:#869edb;fill-opacity:1;fill-rule:nonzero;stroke:none;stroke-width:0.156431"
       id="path62" />
    <path
       d="m 1807.0889,1703.9137 c -0.032,-5.4438 16.8789,-9.9177 37.7626,-10.0115 20.8679,-0.079 37.8093,4.2705 37.8407,9.6987 0.015,5.4438 -16.8947,9.9333 -37.7625,10.0116 -20.8837,0.094 -37.8251,-4.255 -37.8408,-9.6988"
       style="fill:#fcf0f0;fill-opacity:1;fill-rule:nonzero;stroke:none;stroke-width:0.156431"
       id="path64" />
    <path
       d="m 1802.5994,1701.7706 c -0.015,-5.4438 16.8945,-9.9333 37.7624,-10.0116 20.8837,-0.079 37.8251,4.255 37.8564,9.6988 0.015,5.4438 -16.8946,9.9177 -37.7781,10.0115 -20.868,0.079 -37.8094,-4.2548 -37.8407,-9.6987"
       style="fill:#869edb;fill-opacity:1;fill-rule:nonzero;stroke:none;stroke-width:0.156431"
       id="path66" />
    <path
       d="m 1821.4024,1699.956 c 0,-1.5643 10.4966,-2.8783 23.4647,-2.9252 12.9525,-0.047 23.4647,1.1732 23.4647,2.7219 0.015,1.5643 -10.4809,2.8783 -23.449,2.9252 -12.9682,0.047 -23.4804,-1.1732 -23.4804,-2.7219"
       style="fill:#fcf0f0;fill-opacity:1;fill-rule:nonzero;stroke:none;stroke-width:0.156431"
       id="path68" />
    <path
       d="m 1799.4708,1649.1002 c -0.015,-3.5197 10.3088,-6.4137 23.0579,-6.4606 12.7492,-0.047 23.1049,2.7533 23.1206,6.2729 0.015,3.5197 -10.3089,6.4137 -23.058,6.4763 -12.7491,0.047 -23.1049,-2.7688 -23.1205,-6.2886"
       style="fill:#fcf0f0;fill-opacity:1;fill-rule:nonzero;stroke:none;stroke-width:0.156431"
       id="path70" />
    <path
       d="m 1796.7332,1647.708 c -0.015,-3.5197 10.3088,-6.4137 23.0579,-6.4606 12.7492,-0.047 23.1049,2.7531 23.1206,6.2729 0.015,3.5196 -10.3089,6.4137 -23.058,6.4763 -12.7491,0.047 -23.1049,-2.7689 -23.1205,-6.2886"
       style="fill:#869edb;fill-opacity:1;fill-rule:nonzero;stroke:none;stroke-width:0.156431"
       id="path72" />
    <path
       d="m 1801.8016,1646.2845 c -0.015,-2.8471 8.8227,-5.1936 19.726,-5.2405 10.9189,-0.032 19.7729,2.2371 19.7729,5.0683 0.015,2.8471 -8.8228,5.1936 -19.726,5.2406 -10.9033,0.047 -19.7573,-2.2214 -19.7729,-5.0684"
       style="fill:#fcf0f0;fill-opacity:1;fill-rule:nonzero;stroke:none;stroke-width:0.156431"
       id="path74" />
    <path
       d="m 1799.4551,1645.1582 c 0,-2.8471 8.8227,-5.1779 19.7416,-5.2248 10.9033,-0.047 19.7573,2.2213 19.7729,5.0683 0.015,2.8314 -8.8227,5.1779 -19.7416,5.2248 -10.9032,0.047 -19.7572,-2.2213 -19.7729,-5.0683"
       style="fill:#869edb;fill-opacity:1;fill-rule:nonzero;stroke:none;stroke-width:0.156431"
       id="path76" />
    <path
       d="m 1809.279,1644.2039 c 0,-0.8134 5.4907,-1.4861 12.2642,-1.5174 6.7735,-0.032 12.2642,0.6102 12.2642,1.4236 0,0.8134 -5.4907,1.5018 -12.2486,1.5174 -6.7734,0.032 -12.2798,-0.6101 -12.2798,-1.4236"
       style="fill:#fcf0f0;fill-opacity:1;fill-rule:nonzero;stroke:none;stroke-width:0.156431"
       id="path78" />
    <path
       d="m 1347.9163,1720.5736 c 23.2457,3.5667 27.9386,4.8182 57.6762,6.1634 l 11.7011,-46.9919 c -50.0424,-6.226 -85.9746,-19.6634 -92.6386,-26.4525 l -39.9838,48.6971 c 3.7543,3.238 20.5081,11.9669 63.2451,18.5839"
       style="fill:#869edb;fill-opacity:1;fill-rule:nonzero;stroke:none;stroke-width:0.156431"
       id="path80" />
    <path
       d="m 1394.5797,1726.0801 c 0,0 62.9323,4.8337 85.3176,5.5376 l -85.3489,-12.4519 0.032,6.9143"
       style="fill:#869edb;fill-opacity:1;fill-rule:nonzero;stroke:none;stroke-width:0.156431"
       id="path82" />
    <path
       d="m 1394.1105,1715.0516 0.2033,6.8518 c 0.5945,0.062 61.9155,4.3487 82.0639,4.9745 -0.6415,0 -82.2672,-11.8263 -82.2672,-11.8263"
       style="fill:#869edb;fill-opacity:1;fill-rule:nonzero;stroke:none;stroke-width:0.156431"
       id="path84" />
    <path
       d="m 1393.6724,1710.9375 0.3754,6.8048 c 1.189,0.1094 60.8987,3.8325 78.8101,4.3956 -1.2984,-0.015 -79.1855,-11.2004 -79.1855,-11.2004"
       style="fill:#869edb;fill-opacity:1;fill-rule:nonzero;stroke:none;stroke-width:0.156431"
       id="path86" />
    <path
       d="m 1393.2344,1706.8233 0.5631,6.758 c 1.7521,0.1563 59.8663,3.3162 75.5407,3.8168 -1.9554,-0.032 -76.1038,-10.5748 -76.1038,-10.5748"
       style="fill:#869edb;fill-opacity:1;fill-rule:nonzero;stroke:none;stroke-width:0.156431"
       id="path88" />
    <path
       d="m 1392.7964,1702.7093 0.7352,6.6951 c 2.3465,0.2347 58.8495,2.8315 72.2713,3.2382 -2.5968,-0.015 -73.0065,-9.9333 -73.0065,-9.9333"
       style="fill:#869edb;fill-opacity:1;fill-rule:nonzero;stroke:none;stroke-width:0.156431"
       id="path90" />
    <path
       d="m 1392.3584,1698.5951 0.9073,6.6483 c 2.941,0.2815 57.8326,2.3152 69.0174,2.6594 -3.2537,-0.032 -69.9247,-9.3077 -69.9247,-9.3077"
       style="fill:#869edb;fill-opacity:1;fill-rule:nonzero;stroke:none;stroke-width:0.156431"
       id="path92" />
    <path
       d="m 1391.9204,1694.481 1.0793,6.5857 c 3.5354,0.3442 56.8159,1.8146 65.7638,2.0961 -3.9108,-0.032 -66.8431,-8.6818 -66.8431,-8.6818"
       style="fill:#869edb;fill-opacity:1;fill-rule:nonzero;stroke:none;stroke-width:0.156431"
       id="path94" />
    <path
       d="m 1391.4823,1690.5076 1.2515,6.5388 c 4.1298,0.4067 55.7834,1.3141 62.5099,1.5174 -4.552,-0.047 -63.7614,-8.0562 -63.7614,-8.0562"
       style="fill:#869edb;fill-opacity:1;fill-rule:nonzero;stroke:none;stroke-width:0.156431"
       id="path96" />
    <path
       d="m 1391.0444,1686.4248 1.4391,6.4762 c 4.6929,0.4537 54.751,0.7978 59.2406,0.9385 -5.2091,-0.047 -60.6797,-7.4147 -60.6797,-7.4147"
       style="fill:#869edb;fill-opacity:1;fill-rule:nonzero;stroke:none;stroke-width:0.156431"
       id="path98" />
    <path
       d="m 1390.6064,1682.3262 1.6112,6.4294 c 5.2874,0.5162 53.7341,0.2972 55.9711,0.3597 -5.8506,-0.047 -57.5823,-6.7891 -57.5823,-6.7891"
       style="fill:#869edb;fill-opacity:1;fill-rule:nonzero;stroke:none;stroke-width:0.156431"
       id="path100" />
    <path
       d="m 1390.1527,1678.0243 c 0,0 48.0087,6.1009 54.5163,6.1634 0,0 -46.8355,0.7822 -52.7173,0.2191 l -1.799,-6.3825"
       style="fill:#869edb;fill-opacity:1;fill-rule:nonzero;stroke:none;stroke-width:0.156431"
       id="path102" />
    <path
       d="m 1707.5518,1719.1033 c -23.2145,3.7542 -27.8918,5.0526 -57.6138,6.6482 l -12.092,-46.898 c 49.9954,-6.6327 85.8182,-20.3674 92.4352,-27.219 l 40.3749,48.3685 c -3.7387,3.2694 -20.4143,12.1234 -63.1043,19.1003"
       style="fill:#869edb;fill-opacity:1;fill-rule:nonzero;stroke:none;stroke-width:0.156431"
       id="path104" />
    <path
       d="m 1660.9509,1724.985 c 0,0 -62.901,5.3656 -85.2864,6.2417 l 85.2551,-13.1403 0.032,6.8986"
       style="fill:#869edb;fill-opacity:1;fill-rule:nonzero;stroke:none;stroke-width:0.156431"
       id="path106" />
    <path
       d="m 1661.3263,1713.9723 c 0,0 -81.5164,12.4832 -82.1733,12.4832 20.1483,-0.7978 81.4381,-5.5846 82.0169,-5.6316 l 0.1564,-6.8516"
       style="fill:#869edb;fill-opacity:1;fill-rule:nonzero;stroke:none;stroke-width:0.156431"
       id="path108" />
    <path
       d="m 1661.733,1709.8425 c 0,0 -77.7933,11.8262 -79.0916,11.8419 17.8957,-0.704 77.5899,-4.912 78.7631,-5.0372 l 0.3285,-6.8047"
       style="fill:#869edb;fill-opacity:1;fill-rule:nonzero;stroke:none;stroke-width:0.156431"
       id="path110" />
    <path
       d="m 1662.124,1705.7283 c 0,0 -74.0545,11.1536 -75.9942,11.1848 15.6588,-0.61 73.7417,-4.2548 75.4938,-4.4269 l 0.5004,-6.7579"
       style="fill:#869edb;fill-opacity:1;fill-rule:nonzero;stroke:none;stroke-width:0.156431"
       id="path112" />
    <path
       d="m 1662.5308,1701.6142 c 0,0 -70.3158,10.4809 -72.9282,10.5278 13.4374,-0.5318 69.909,-3.5823 72.2555,-3.8326 l 0.6727,-6.6952"
       style="fill:#869edb;fill-opacity:1;fill-rule:nonzero;stroke:none;stroke-width:0.156431"
       id="path114" />
    <path
       d="m 1662.9376,1697.4844 c 0,0 -66.5928,9.8239 -69.8467,9.8865 11.185,-0.438 66.061,-2.9253 69.0019,-3.2225 l 0.8448,-6.664"
       style="fill:#869edb;fill-opacity:1;fill-rule:nonzero;stroke:none;stroke-width:0.156431"
       id="path116" />
    <path
       d="m 1663.3442,1693.3703 c 0,0 -62.8696,9.1669 -66.7648,9.2294 8.9478,-0.3597 62.2128,-2.2526 65.7324,-2.628 l 1.0324,-6.6014"
       style="fill:#869edb;fill-opacity:1;fill-rule:nonzero;stroke:none;stroke-width:0.156431"
       id="path118" />
    <path
       d="m 1663.751,1689.2562 c 0,0 -59.131,8.4941 -63.6832,8.5724 6.7109,-0.2659 58.3645,-1.5956 62.4787,-2.018 l 1.2045,-6.5544"
       style="fill:#869edb;fill-opacity:1;fill-rule:nonzero;stroke:none;stroke-width:0.156431"
       id="path120" />
    <path
       d="m 1664.1577,1685.1264 c 0,0 -55.4079,7.8372 -60.6171,7.931 4.4739,-0.172 54.5319,-0.9385 59.2405,-1.4235 l 1.3766,-6.5075"
       style="fill:#869edb;fill-opacity:1;fill-rule:nonzero;stroke:none;stroke-width:0.156431"
       id="path122" />
    <path
       d="m 1664.5644,1681.0122 c 0,0 -51.6848,7.1646 -57.5354,7.2741 2.237,-0.094 50.6837,-0.266 55.9711,-0.8135 l 1.5643,-6.4606"
       style="fill:#869edb;fill-opacity:1;fill-rule:nonzero;stroke:none;stroke-width:0.156431"
       id="path124" />
    <path
       d="m 1664.9711,1676.8981 c 0,0 -47.9461,6.4919 -54.4536,6.6171 0,0 46.8354,0.391 52.7173,-0.2191 l 1.7363,-6.398"
       style="fill:#869edb;fill-opacity:1;fill-rule:nonzero;stroke:none;stroke-width:0.156431"
       id="path126" />
    <path
       d="m 1990.3168,1733.8077 c 0,0 -1.9397,61.7591 -58.1142,92.8889 l 7.5714,-0.032 c 0,0 58.2706,-27.5162 66.2955,-96.2834 l -15.7527,3.4258"
       style="fill:#fcf0f0;fill-opacity:1;fill-rule:nonzero;stroke:none;stroke-width:0.156431"
       id="path128" />
    <path
       d="m 1064.1656,1737.5934 c 0,0 2.456,61.7434 58.8651,92.4039 l -7.5556,0.032 c 0,0 -58.5053,-27.0313 -67.0934,-95.736 l 15.7839,3.3008"
       style="fill:#fcf0f0;fill-opacity:1;fill-rule:nonzero;stroke:none;stroke-width:0.156431"
       id="path130" />
    <path
       d="m 1394.611,1731.9775 c 0,0 -12.7804,-36.4015 3.0035,-55.8303 0,0 -35.5725,20.602 -36.6831,50.7776 l 33.6796,5.0527"
       style="fill:#fcf0f0;fill-opacity:1;fill-rule:nonzero;stroke:none;stroke-width:0.156431"
       id="path132" />
    <path
       d="m 1732.174,1655.7486 c -0.078,-16.8007 -91.7782,-30.0505 -204.8154,-29.5968 -113.0529,0.4692 -204.6278,14.4698 -204.5651,31.2706 0.062,16.8007 91.7625,30.0504 204.8154,29.5811 113.0372,-0.4537 204.6277,-14.4543 204.5651,-31.2549"
       style="fill:#869edb;fill-opacity:1;fill-rule:nonzero;stroke:none;stroke-width:0.156431"
       id="path134" />
    <path
       d="m 1678.4555,1655.6234 c -0.047,-10.6999 -67.6721,-19.1002 -151.05,-18.7561 -83.3935,0.3441 -150.9405,9.2921 -150.9092,19.9919 0.047,10.6999 67.6878,19.1003 151.0656,18.7561 83.3779,-0.3441 150.925,-9.292 150.8936,-19.9919"
       style="fill:#fcf0f0;fill-opacity:1;fill-rule:nonzero;stroke:none;stroke-width:0.156431"
       id="path136" />
    <path
       d="m 1056.4848,1686.0336 c 0,-1.8302 -9.4953,-3.285 -21.212,-3.238 -11.7168,0.047 -21.2121,1.5799 -21.1964,3.4101 0,1.8459 9.511,3.3008 21.2277,3.2539 11.701,-0.047 21.1964,-1.5801 21.1807,-3.426"
       style="fill:#fcf0f0;fill-opacity:1;fill-rule:nonzero;stroke:none;stroke-width:0.156431"
       id="path138" />
    <path
       d="m 1998.686,1682.1855 c 0,-1.8303 9.4797,-3.3633 21.1963,-3.4103 11.7167,-0.047 21.2121,1.3923 21.2278,3.2382 0,1.8459 -9.4797,3.3633 -21.1965,3.4102 -11.7167,0.047 -21.212,-1.3922 -21.2276,-3.2381"
       style="fill:#fcf0f0;fill-opacity:1;fill-rule:nonzero;stroke:none;stroke-width:0.156431"
       id="path140" />
    <path
       d="m 2370.5856,1476.8069 c -0.3128,-74.3362 -377.9849,-133.0292 -843.5555,-131.1363 -465.6021,1.9084 -842.78903,63.6987 -842.49182,138.0193 0.51622,126.8814 378.76702,323.3121 844.36892,321.4036 465.5707,-1.8928 842.1946,-201.4209 841.6784,-328.2866"
       style="fill:#fcf0f0;fill-opacity:1;fill-rule:nonzero;stroke:none;stroke-width:0.156431"
       id="path142" />
    <path
       d="m 1528.8447,1791.9063 c -121.4845,0.5006 -359.8701,-13.3123 -591.37271,-111.3634 -73.5228,-31.1455 -134.96886,-66.7179 -177.73719,-102.916 -39.87436,-33.7424 -61.88426,-67.1247 -61.99371,-93.984 -0.0788,-16.5191 49.44785,-52.6234 235.4603,-83.0963 158.44921,-25.9519 369.36551,-40.766 593.87561,-41.6733 224.5101,-0.9229 435.5202,12.1547 594.1728,36.8083 186.2627,28.9554 236.0705,64.653 236.133,81.1722 0.1093,26.8749 -21.6344,60.4294 -61.2272,94.5001 -42.4711,36.5267 -103.62,72.6154 -176.8768,104.3554 -99.021,42.8934 -307.403,115.0395 -590.4341,116.197 z m -1.8772,-459.4229 c -225.8555,0.9229 -438.2421,15.8465 -598.03671,42.0175 -173.51353,28.4235 -257.76744,64.168 -257.57969,109.2515 0.14084,35.2126 24.81004,74.6489 71.3483,114.0227 44.75504,37.8877 108.54759,74.8993 184.47939,107.0616 174.79631,74.0389 388.51261,114.3199 601.77531,113.4596 213.2628,-0.876 426.635,-42.9247 600.8213,-118.3872 75.65,-32.7723 139.1299,-70.3158 183.5876,-108.5633 46.2098,-39.7492 70.5505,-79.3731 70.4098,-114.6015 -0.1878,-45.0835 -84.7232,-80.1241 -258.4714,-107.1241 -159.9822,-24.8726 -372.4785,-38.0598 -598.3339,-37.1368"
       style="fill:#869edb;fill-opacity:1;fill-rule:nonzero;stroke:none;stroke-width:0.156431"
       id="path144" />
    <path
       d="m 2370.5856,1476.8069 c -0.3128,-74.3362 -377.9849,-133.0292 -843.5555,-131.1363 -465.6021,1.9084 -842.78903,63.6987 -842.49182,138.0193 0.31283,74.3048 377.98492,133.0134 843.58682,131.105 465.5706,-1.9085 842.7577,-63.6832 842.4605,-137.988"
       style="fill:#869edb;fill-opacity:1;fill-rule:nonzero;stroke:none;stroke-width:0.156431"
       id="path146" />
    <path
       d="m 1526.2636,1360.6723 c -78.857,0.3285 -153.068,5.2091 -208.9766,13.7503 -74.1171,11.3413 -92.5759,25.3419 -96.127,38.3569 l -47.9774,54.094 c -6.0539,5.6628 -7.321,11.5602 -7.3054,15.5649 0.094,24.638 45.4746,35.1657 113.5692,43.4097 66.2329,8.0249 154.1473,12.2329 247.5524,11.8418 93.4051,-0.3755 181.2725,-5.303 247.4429,-13.8598 94.0622,-12.1704 113.2876,-26.5307 113.2094,-44.3327 -0.015,-4.0202 -1.3454,-9.902 -7.4462,-15.5178 l -48.3999,-53.7029 c -3.6605,-12.9682 -22.2288,-26.828 -96.4398,-37.5592 -55.9711,-8.0874 -130.229,-12.3581 -209.1016,-12.0452"
       style="fill:#fcf0f0;fill-opacity:1;fill-rule:nonzero;stroke:none;stroke-width:0.156431"
       id="path148" />
    <path
       d="m 1875.2617,1478.8092 c 0.094,24.0434 -155.4926,44.1762 -347.5276,44.9583 -192.0195,0.7822 -347.7781,-18.0678 -347.8719,-42.1112 0,-2.1118 1.2202,-4.1924 3.5353,-6.2416 v 0 l 51.0123,-57.5355 585.7725,-2.3933 51.4971,57.113 c 2.3308,2.0336 3.5667,4.0985 3.5823,6.2103"
       style="fill:#fcf0f0;fill-opacity:1;fill-rule:nonzero;stroke:none;stroke-width:0.156431"
       id="path150" />
    <path
       d="m 857.84849,1385.936 c 0,0 -3.9891,0.7038 -11.482,2.0492 -7.4618,1.4235 -18.45903,3.4571 -32.27189,6.8673 -13.79721,3.4258 -30.55105,7.8528 -49.22894,14.908 -9.33895,3.5352 -19.16273,7.6807 -29.15874,13.0776 -4.99013,2.7062 -10.01165,5.7566 -14.89221,9.4327 -4.84941,3.6763 -9.68318,7.8843 -13.7034,13.4688 -1.97108,2.8001 -3.75442,5.9757 -4.81814,9.6675 -0.53186,1.8303 -0.87597,3.7856 -0.96978,5.7879 l -0.0317,0.7509 0.0153,0.8135 c 0.0317,0.4222 0,0.7039 0.0623,1.2514 0.094,1.1263 0.23465,2.2526 0.45356,3.1756 1.76769,7.978 6.82049,13.9849 12.014,18.8186 5.30297,4.865 11.2161,8.7289 17.34824,12.2174 6.13203,3.504 12.53011,6.5544 19.06892,9.4014 26.24914,11.2161 54.8605,19.3976 84.66056,26.4057 29.83152,6.9454 60.83622,12.968 92.51352,17.8956 31.6617,4.9746 63.9178,9.1982 96.20531,12.9056 32.3186,3.5198 64.6843,6.445 96.565,8.9479 31.8807,2.5812 63.3077,4.2236 93.7023,5.7723 30.3945,1.5643 59.8036,2.4716 87.6953,3.1443 27.876,0.7352 54.2504,0.9855 78.5911,1.0481 24.3407,0.1252 46.6478,-0.1094 66.4207,-0.4067 19.7573,-0.2659 36.9959,-0.7509 51.1843,-1.1733 14.1727,-0.3754 25.3263,-0.9072 32.9131,-1.2046 7.6026,-0.3284 11.6542,-0.5005 11.6542,-0.5005 0,0 -16.2064,-0.6101 -44.5673,-1.6894 -14.157,-0.5475 -31.3645,-1.2202 -51.1061,-1.9868 -19.726,-0.8603 -41.9862,-1.8146 -66.2486,-2.8626 -24.2625,-1.2359 -50.543,-2.5812 -78.3408,-3.989 -27.7822,-1.533 -57.0505,-3.4258 -87.32,-5.4125 -30.2693,-1.9868 -61.5087,-4.6148 -93.2329,-7.1959 -31.7243,-2.6749 -63.9022,-5.8192 -96.0175,-9.464 -32.13101,-3.4729 -64.18371,-7.4775 -95.59511,-12.2173 -31.4114,-4.7712 -62.244,-9.8239 -91.7157,-16.222 -29.40913,-6.4919 -57.77019,-13.5156 -83.11198,-23.4803 -12.54586,-5.0215 -24.57538,-10.825 -33.78912,-18.3963 -4.52093,-3.7857 -8.1345,-8.2127 -9.27641,-12.6866 -1.25147,-4.3957 0.17212,-9.1982 3.08171,-13.6565 2.89396,-4.4582 6.94546,-8.4003 11.20046,-11.8888 4.28616,-3.504 8.86963,-6.5857 13.45311,-9.4327 9.22938,-5.6472 18.58396,-10.2149 27.53189,-14.157 17.94264,-7.806 34.21153,-13.3906 47.69591,-17.6454 13.50001,-4.1925 24.23123,-7.2584 31.56783,-9.1983 7.3523,-1.924 11.2787,-2.9408 11.2787,-2.9408"
       style="fill:#fcf0f0;fill-opacity:1;fill-rule:nonzero;stroke:none;stroke-width:0.156431"
       id="path152" />
    <path
       d="m 1134.2156,1495.3596 c -0.032,-9.6362 -28.3766,-17.3325 -63.2765,-17.1918 -34.9155,0.1408 -63.1825,8.0718 -63.1512,17.708 0.047,9.6362 28.3765,17.3326 63.292,17.1919 34.8998,-0.1409 63.1826,-8.0719 63.1357,-17.7081"
       style="fill:#fcf0f0;fill-opacity:1;fill-rule:nonzero;stroke:none;stroke-width:0.156431"
       id="path154" />
    <path
       d="m 1141.6774,1491.4958 c -0.032,-9.6363 -28.3767,-17.3326 -63.2921,-17.1919 -34.8999,0.1409 -63.1827,8.0719 -63.1358,17.7081 0.032,9.6362 28.3767,17.3325 63.2921,17.1918 34.8999,-0.1565 63.1827,-8.0718 63.1358,-17.708"
       style="fill:#869edb;fill-opacity:1;fill-rule:nonzero;stroke:none;stroke-width:0.156431"
       id="path156" />
    <path
       d="m 1127.7862,1487.6788 c -0.032,-7.7902 -24.2781,-14.0006 -54.1409,-13.8755 -29.8783,0.1252 -54.0782,6.5233 -54.047,14.3136 0.032,7.7903 24.2782,14.0006 54.1566,13.8754 29.8783,-0.1093 54.0626,-6.5232 54.0313,-14.3135"
       style="fill:#fcf0f0;fill-opacity:1;fill-rule:nonzero;stroke:none;stroke-width:0.156431"
       id="path158" />
    <path
       d="m 1134.1687,1484.5502 c -0.032,-7.7902 -24.2782,-14.0006 -54.1409,-13.8755 -29.8784,0.1252 -54.0783,6.5232 -54.0314,14.3136 0.032,7.7902 24.2625,14.0005 54.1408,13.891 29.8785,-0.1251 54.0627,-6.5388 54.0315,-14.3291"
       style="fill:#869edb;fill-opacity:1;fill-rule:nonzero;stroke:none;stroke-width:0.156431"
       id="path160" />
    <path
       d="m 1107.2468,1482.1725 c 0,-2.237 -15.0487,-3.9734 -33.5857,-3.9108 -18.5528,0.078 -33.5703,1.9553 -33.5703,4.1767 0.015,2.2369 15.0487,3.989 33.6015,3.9108 18.5371,-0.079 33.5701,-1.9398 33.5545,-4.1767"
       style="fill:#fcf0f0;fill-opacity:1;fill-rule:nonzero;stroke:none;stroke-width:0.156431"
       id="path162" />
    <path
       d="m 1138.0325,1409.166 c -0.015,-5.0371 -14.8298,-9.0574 -33.0696,-8.9948 -18.2399,0.078 -33.007,4.2236 -32.9913,9.2607 0.015,5.0371 14.8296,9.0574 33.0695,8.9792 18.2399,-0.078 33.0071,-4.208 32.9914,-9.2451"
       style="fill:#fcf0f0;fill-opacity:1;fill-rule:nonzero;stroke:none;stroke-width:0.156431"
       id="path164" />
    <path
       d="m 1141.9277,1407.1323 c -0.015,-5.0214 -14.8141,-9.0416 -33.0697,-8.9791 -18.2398,0.078 -33.0069,4.2237 -32.9913,9.2608 0.015,5.037 14.8297,9.0573 33.0695,8.9791 18.24,-0.078 33.0227,-4.2236 32.9915,-9.2608"
       style="fill:#869edb;fill-opacity:1;fill-rule:nonzero;stroke:none;stroke-width:0.156431"
       id="path166" />
    <path
       d="m 1134.6692,1405.1457 c -0.015,-4.0672 -12.6865,-7.3209 -28.2827,-7.2427 -15.612,0.062 -28.2672,3.4101 -28.2359,7.4774 0.015,4.0671 12.671,7.3209 28.2828,7.2584 15.6118,-0.079 28.2515,-3.4259 28.2358,-7.4931"
       style="fill:#fcf0f0;fill-opacity:1;fill-rule:nonzero;stroke:none;stroke-width:0.156431"
       id="path168" />
    <path
       d="m 1138.0169,1403.5189 c -0.015,-4.0673 -12.6866,-7.3211 -28.2985,-7.2584 -15.6119,0.062 -28.2514,3.4101 -28.2358,7.4773 0.015,4.0829 12.6866,7.3211 28.2984,7.2584 15.6118,-0.062 28.2515,-3.4102 28.2359,-7.4773"
       style="fill:#869edb;fill-opacity:1;fill-rule:nonzero;stroke:none;stroke-width:0.156431"
       id="path170" />
    <path
       d="m 1123.938,1402.2674 c 0,-1.1577 -7.8528,-2.0805 -17.5515,-2.0336 -9.6832,0.032 -17.536,1.0168 -17.536,2.1743 0,1.1733 7.8684,2.0806 17.5516,2.0493 9.6987,-0.047 17.5515,-1.0168 17.5359,-2.19"
       style="fill:#fcf0f0;fill-opacity:1;fill-rule:nonzero;stroke:none;stroke-width:0.156431"
       id="path172" />
    <path
       d="m 1921.0178,1492.1371 c -0.047,-9.6361 28.2359,-17.5672 63.1357,-17.708 34.9154,-0.1408 63.2451,7.5556 63.292,17.1918 0.032,9.6361 -28.2357,17.5673 -63.1512,17.708 -34.8998,0.1408 -63.2452,-7.5556 -63.2765,-17.1918"
       style="fill:#fcf0f0;fill-opacity:1;fill-rule:nonzero;stroke:none;stroke-width:0.156431"
       id="path174" />
    <path
       d="m 1913.5247,1488.3358 c -0.047,-9.6362 28.2359,-17.5672 63.1358,-17.708 34.9153,-0.1407 63.2607,7.5556 63.292,17.1918 0.047,9.6362 -28.2358,17.5672 -63.1357,17.7081 -34.9154,0.1407 -63.2608,-7.5556 -63.2921,-17.1919"
       style="fill:#869edb;fill-opacity:1;fill-rule:nonzero;stroke:none;stroke-width:0.156431"
       id="path176" />
    <path
       d="m 1927.3846,1484.4094 c -0.032,-7.7903 24.153,-14.2039 54.0313,-14.3291 29.8784,-0.1093 54.1253,6.1009 54.1566,13.8912 0.032,7.7746 -24.1687,14.1882 -54.0471,14.3134 -29.8627,0.1251 -54.1095,-6.0852 -54.1408,-13.8755"
       style="fill:#fcf0f0;fill-opacity:1;fill-rule:nonzero;stroke:none;stroke-width:0.156431"
       id="path178" />
    <path
       d="m 1920.9709,1481.3277 c -0.032,-7.7747 24.1686,-14.1883 54.0313,-14.3135 29.8784,-0.1251 54.1253,6.0853 54.1565,13.8755 0.032,7.7903 -24.1686,14.2039 -54.0313,14.3291 -29.8783,0.1094 -54.1252,-6.1008 -54.1565,-13.8911"
       style="fill:#869edb;fill-opacity:1;fill-rule:nonzero;stroke:none;stroke-width:0.156431"
       id="path180" />
    <path
       d="m 1947.8771,1478.7309 c -0.015,-2.2212 15.0174,-4.0984 33.5545,-4.1767 18.5528,-0.078 33.5857,1.6739 33.6015,3.9108 0,2.2214 -15.0175,4.0985 -33.5703,4.1767 -18.537,0.079 -33.5857,-1.6738 -33.5857,-3.9108"
       style="fill:#fcf0f0;fill-opacity:1;fill-rule:nonzero;stroke:none;stroke-width:0.156431"
       id="path182" />
    <path
       d="m 1916.497,1405.9748 c -0.015,-5.037 14.7515,-9.1668 32.9913,-9.2451 18.2399,-0.078 33.0539,3.9421 33.0695,8.9792 0.015,5.037 -14.7513,9.1824 -32.9913,9.2451 -18.2399,0.078 -33.0539,-3.9422 -33.0695,-8.9792"
       style="fill:#fcf0f0;fill-opacity:1;fill-rule:nonzero;stroke:none;stroke-width:0.156431"
       id="path184" />
    <path
       d="m 1912.5862,1403.9881 c -0.032,-5.0371 14.7515,-9.1825 32.9913,-9.245 18.2399,-0.079 33.0539,3.942 33.0696,8.979 0.015,5.0372 -14.7515,9.1826 -32.9914,9.2452 -18.2555,0.079 -33.0539,-3.9421 -33.0695,-8.9792"
       style="fill:#869edb;fill-opacity:1;fill-rule:nonzero;stroke:none;stroke-width:0.156431"
       id="path186" />
    <path
       d="m 1919.829,1401.9388 c -0.032,-4.0671 12.6239,-7.4148 28.2201,-7.4773 15.6119,-0.079 28.2828,3.1755 28.2984,7.2428 0.015,4.0671 -12.6239,7.4147 -28.2357,7.4929 -15.612,0.062 -28.2672,-3.1911 -28.2828,-7.2584"
       style="fill:#fcf0f0;fill-opacity:1;fill-rule:nonzero;stroke:none;stroke-width:0.156431"
       id="path188" />
    <path
       d="m 1916.4657,1400.3276 c -0.015,-4.0671 12.6239,-7.4148 28.2358,-7.4774 15.6119,-0.062 28.2827,3.1756 28.2985,7.2427 0.015,4.0829 -12.6241,7.4306 -28.2359,7.4931 -15.6118,0.062 -28.2828,-3.1912 -28.2984,-7.2584"
       style="fill:#869edb;fill-opacity:1;fill-rule:nonzero;stroke:none;stroke-width:0.156431"
       id="path190" />
    <path
       d="m 1930.5289,1398.9667 c 0,-1.1576 7.8528,-2.1431 17.5358,-2.1744 9.6988,-0.047 17.5517,0.876 17.5517,2.0335 0.015,1.1733 -7.8372,2.1432 -17.5359,2.1901 -9.6832,0.032 -17.5516,-0.8759 -17.5516,-2.0492"
       style="fill:#fcf0f0;fill-opacity:1;fill-rule:nonzero;stroke:none;stroke-width:0.156431"
       id="path192" />
    <path
       d="m 1270.3734,1508.2339 c 33.2572,5.1153 39.9838,6.8987 82.5174,8.8383 l 16.7538,-67.2497 c -71.5986,-8.9009 -123.0176,-28.1263 -132.5755,-37.8564 l -57.2069,69.6902 c 5.3813,4.6146 29.3621,17.1136 90.5112,26.5776"
       style="fill:#869edb;fill-opacity:1;fill-rule:nonzero;stroke:none;stroke-width:0.156431"
       id="path194" />
    <path
       d="m 1337.1382,1516.118 c 0,0 90.0574,6.9299 122.0789,7.9311 l -122.1258,-17.8176 0.047,9.8865"
       style="fill:#869edb;fill-opacity:1;fill-rule:nonzero;stroke:none;stroke-width:0.156431"
       id="path196" />
    <path
       d="m 1336.4655,1500.3498 0.2973,9.8083 c 0.8447,0.079 88.587,6.2102 117.4172,7.1019 -0.923,0 -117.7145,-16.9102 -117.7145,-16.9102"
       style="fill:#869edb;fill-opacity:1;fill-rule:nonzero;stroke:none;stroke-width:0.156431"
       id="path198" />
    <path
       d="m 1335.8398,1494.4679 0.5475,9.7144 c 1.6739,0.1721 87.1322,5.4908 112.7557,6.2886 -1.8616,-0.015 -113.3032,-16.003 -113.3032,-16.003"
       style="fill:#869edb;fill-opacity:1;fill-rule:nonzero;stroke:none;stroke-width:0.156431"
       id="path200" />
    <path
       d="m 1335.2141,1488.5705 0.7978,9.6519 c 2.5185,0.2501 85.6617,4.7711 108.0939,5.475 -2.8001,-0.032 -108.8917,-15.1269 -108.8917,-15.1269"
       style="fill:#869edb;fill-opacity:1;fill-rule:nonzero;stroke:none;stroke-width:0.156431"
       id="path202" />
    <path
       d="m 1334.5883,1482.6887 1.0481,9.5736 c 3.3633,0.3285 84.207,4.0359 103.4168,4.6459 -3.7232,-0.047 -104.4649,-14.2195 -104.4649,-14.2195"
       style="fill:#869edb;fill-opacity:1;fill-rule:nonzero;stroke:none;stroke-width:0.156431"
       id="path204" />
    <path
       d="m 1333.9626,1476.9477 1.2984,9.5109 c 4.208,0.4068 82.7365,3.3008 98.755,3.8014 -4.6617,-0.032 -100.0534,-13.3123 -100.0534,-13.3123"
       style="fill:#869edb;fill-opacity:1;fill-rule:nonzero;stroke:none;stroke-width:0.156431"
       id="path206" />
    <path
       d="m 1333.3212,1471.0815 1.5643,9.4327 c 5.0372,0.485 81.2818,2.5968 94.0935,3.0036 -5.5847,-0.062 -95.6578,-12.4363 -95.6578,-12.4363"
       style="fill:#869edb;fill-opacity:1;fill-rule:nonzero;stroke:none;stroke-width:0.156431"
       id="path208" />
    <path
       d="m 1332.6955,1465.2309 1.8146,9.3546 c 5.8819,0.5632 79.8112,1.8616 89.4318,2.1745 -6.5233,-0.062 -91.2464,-11.5291 -91.2464,-11.5291"
       style="fill:#869edb;fill-opacity:1;fill-rule:nonzero;stroke:none;stroke-width:0.156431"
       id="path210" />
    <path
       d="m 1332.0697,1459.3648 2.0493,9.292 c 6.7422,0.6414 78.3721,1.1419 84.7701,1.3453 -7.4461,-0.079 -86.8194,-10.6373 -86.8194,-10.6373"
       style="fill:#869edb;fill-opacity:1;fill-rule:nonzero;stroke:none;stroke-width:0.156431"
       id="path212" />
    <path
       d="m 1331.4441,1453.5142 2.2995,9.2139 c 7.5869,0.7195 76.9016,0.4066 80.1085,0.5162 -8.3848,-0.079 -82.408,-9.7301 -82.408,-9.7301"
       style="fill:#869edb;fill-opacity:1;fill-rule:nonzero;stroke:none;stroke-width:0.156431"
       id="path214" />
    <path
       d="m 1330.8184,1447.3508 c 0,0 68.6889,8.7445 77.9965,8.8227 0,0 -67.0307,1.1264 -75.4468,0.313 l -2.5497,-9.1357"
       style="fill:#869edb;fill-opacity:1;fill-rule:nonzero;stroke:none;stroke-width:0.156431"
       id="path216" />
    <path
       d="m 1784.9696,1506.1221 c -33.2104,5.3969 -39.9213,7.2428 -82.4393,9.511 l -17.3014,-67.0934 c 71.5204,-9.4954 122.783,-29.1431 132.2471,-38.9513 l 57.7857,69.2208 c -5.35,4.6617 -29.2214,17.3483 -90.2921,27.3129"
       style="fill:#869edb;fill-opacity:1;fill-rule:nonzero;stroke:none;stroke-width:0.156431"
       id="path218" />
    <path
       d="m 1718.2673,1514.5537 c 0,0 -89.9949,7.6652 -122.0164,8.9323 l 121.9851,-18.8031 0.032,9.8708"
       style="fill:#869edb;fill-opacity:1;fill-rule:nonzero;stroke:none;stroke-width:0.156431"
       id="path220" />
    <path
       d="m 1718.8148,1498.7855 c 0,0 -116.6352,17.8645 -117.5737,17.8801 28.8146,-1.142 116.51,-7.9937 117.3547,-8.072 l 0.219,-9.8081"
       style="fill:#869edb;fill-opacity:1;fill-rule:nonzero;stroke:none;stroke-width:0.156431"
       id="path222" />
    <path
       d="m 1719.3936,1492.888 c 0,0 -111.3009,16.9102 -113.1624,16.9415 25.6078,-1.0012 111.0193,-7.0238 112.693,-7.2115 l 0.4694,-9.73"
       style="fill:#869edb;fill-opacity:1;fill-rule:nonzero;stroke:none;stroke-width:0.156431"
       id="path224" />
    <path
       d="m 1719.9723,1486.9905 c 0,0 -105.9665,15.9717 -108.7666,16.0186 22.4167,-0.8916 105.5286,-6.0851 108.0471,-6.3512 l 0.7195,-9.6674"
       style="fill:#869edb;fill-opacity:1;fill-rule:nonzero;stroke:none;stroke-width:0.156431"
       id="path226" />
    <path
       d="m 1720.5512,1481.1088 c 0,0 -100.6322,15.0016 -104.3554,15.0643 19.2098,-0.7509 100.0222,-5.131 103.3855,-5.4751 l 0.9699,-9.5892"
       style="fill:#869edb;fill-opacity:1;fill-rule:nonzero;stroke:none;stroke-width:0.156431"
       id="path228" />
    <path
       d="m 1721.13,1475.2113 c 0,0 -95.2979,14.0631 -99.9439,14.1413 16.0028,-0.6413 94.5157,-4.1767 98.7237,-4.6304 l 1.2202,-9.5109"
       style="fill:#869edb;fill-opacity:1;fill-rule:nonzero;stroke:none;stroke-width:0.156431"
       id="path230" />
    <path
       d="m 1721.7087,1469.3138 c 0,0 -89.948,13.109 -95.5325,13.2028 12.796,-0.5006 89.0094,-3.2224 94.0621,-3.7543 l 1.4704,-9.4485"
       style="fill:#869edb;fill-opacity:1;fill-rule:nonzero;stroke:none;stroke-width:0.156431"
       id="path232" />
    <path
       d="m 1722.2875,1463.4163 c 0,0 -84.6136,12.1704 -91.1368,12.2799 9.6049,-0.3755 83.5343,-2.2839 89.4161,-2.8939 l 1.7207,-9.386"
       style="fill:#869edb;fill-opacity:1;fill-rule:nonzero;stroke:none;stroke-width:0.156431"
       id="path234" />
    <path
       d="m 1722.8664,1457.5346 c 0,0 -79.2794,11.2004 -86.7256,11.3255 6.3981,-0.2503 78.028,-1.3296 84.7545,-2.0335 l 1.9711,-9.292"
       style="fill:#869edb;fill-opacity:1;fill-rule:nonzero;stroke:none;stroke-width:0.156431"
       id="path236" />
    <path
       d="m 1723.4608,1451.6371 c 0,0 -73.9607,10.2462 -82.3297,10.4026 3.1911,-0.125 72.5214,-0.3753 80.0927,-1.1731 l 2.237,-9.2295"
       style="fill:#869edb;fill-opacity:1;fill-rule:nonzero;stroke:none;stroke-width:0.156431"
       id="path238" />
    <path
       d="m 1724.0396,1445.7396 c 0,0 -68.6264,9.3077 -77.934,9.4641 0,0 67.0307,0.5788 75.4467,-0.2972 l 2.4873,-9.1669"
       style="fill:#869edb;fill-opacity:1;fill-rule:nonzero;stroke:none;stroke-width:0.156431"
       id="path240" />
    <path
       d="m 1337.1694,1524.5497 c 0,0 -18.2711,-52.076 4.302,-79.8895 0,0 -50.8871,29.4874 -52.4672,72.678 l 48.1652,7.2115"
       style="fill:#fcf0f0;fill-opacity:1;fill-rule:nonzero;stroke:none;stroke-width:0.156431"
       id="path242" />
    <path
       d="m 1820.1823,1415.4859 c -0.094,-24.0436 -131.3084,-43.003 -293.0584,-42.3461 -161.7499,0.6571 -292.808,20.6959 -292.7141,44.7394 0.1093,24.0435 131.3083,43.003 293.074,42.3303 161.7498,-0.6571 292.8079,-20.6802 292.6985,-44.7236"
       style="fill:#869edb;fill-opacity:1;fill-rule:nonzero;stroke:none;stroke-width:0.156431"
       id="path244" />
    <path
       d="m 1702.8745,1415.4702 c -0.062,-15.3146 -78.7163,-27.4068 -175.6881,-27 -96.9716,0.391 -175.5314,13.1245 -175.4689,28.4391 0.062,15.299 78.7163,27.3912 175.688,27 96.9717,-0.4066 175.5315,-13.1401 175.469,-28.4391"
       style="fill:#fcf0f0;fill-opacity:1;fill-rule:nonzero;stroke:none;stroke-width:0.156431"
       id="path246" />
    <path
       d="m 853.37459,1458.8329 c -0.015,-2.628 -13.6096,-4.7085 -30.36333,-4.646 -16.76947,0.079 -30.34767,2.2526 -30.33203,4.8963 0.0153,2.6281 13.60946,4.693 30.3633,4.6304 16.75376,-0.062 30.33206,-2.2526 30.33206,-4.8807"
       style="fill:#fcf0f0;fill-opacity:1;fill-rule:nonzero;stroke:none;stroke-width:0.156431"
       id="path248" />
    <path
       d="m 2201.5459,1453.3108 c 0,-2.628 13.5784,-4.818 30.3321,-4.8805 16.7538,-0.062 30.3476,2.0022 30.3633,4.6302 0.015,2.6438 -13.5626,4.8182 -30.3321,4.8964 -16.7537,0.062 -30.3476,-2.0179 -30.3633,-4.6461"
       style="fill:#fcf0f0;fill-opacity:1;fill-rule:nonzero;stroke:none;stroke-width:0.156431"
       id="path250" />
    <path
       d="m 1574.1471,2076.2358 c 0,0 132.4191,0.2815 214.5299,-132.0437 5.9287,-9.5736 -2.6281,-21.5718 -13.5782,-18.9282 -44.317,10.7 -135.4226,28.3298 -236.3677,22.667 0,0 69.5963,18.0052 213.2471,-6.4919 11.138,-1.9085 18.897,10.6842 12.2486,19.8198 -26.9062,36.996 -88.3837,103.1665 -190.0797,114.977"
       style="fill:#869edb;fill-opacity:1;fill-rule:nonzero;stroke:none;stroke-width:0.156431"
       id="path252" />
    <path
       d="M 1356.2385,1755.8489 C 993.67769,1701.6456 931.71519,1650.2892 866.84319,1622.4287 798.67053,1593.1604 751.03717,1556.8058 701.292,1510.7525 c 35.44736,10.1992 109.79919,39.2485 160.54539,48.6031 94.3594,17.4108 356.80411,42.5806 477.44391,51.1687 0,0 -275.366,-17.4421 -271.3926,27.5475 5.0058,56.9097 288.3498,117.7771 288.3498,117.7771"
       style="fill:#869edb;fill-opacity:1;fill-rule:nonzero;stroke:none;stroke-width:0.156431"
       id="path254" />
    <path
       d="m 2350.1244,1510.7681 c -32.1623,9.2608 -96.2834,33.9925 -145.8721,45.5058 -5.0528,1.1577 -9.9334,2.2057 -14.6421,3.0817 -2.143,0.3912 -4.3801,0.8291 -6.7422,1.2202 -98.927,17.2387 -349.5143,41.2666 -468.3708,49.7921 26.8906,-1.533 272.8162,-14.814 269.0462,27.7196 -4.9276,56.018 -279.5426,115.853 -288.1307,117.7301 245.5814,-36.6987 353.2061,-72.1774 417.2178,-99.8343 12.577,-5.4438 23.4177,-10.5748 33.3511,-15.3617 14.1414,-6.7734 26.3274,-12.8898 38.6229,-18.1773 68.1727,-29.3152 115.7747,-65.6229 165.5199,-111.6762"
       style="fill:#869edb;fill-opacity:1;fill-rule:nonzero;stroke:none;stroke-width:0.156431"
       id="path256" />
    <path
       d="m 2230.2824,1543.3058 c 0,0 2.4246,-0.4067 7.0081,-1.1732 4.5522,-0.8448 11.2631,-1.9867 19.726,-3.8326 8.463,-1.8303 18.7561,-4.1142 30.4102,-7.4305 11.6541,-3.3163 24.7944,-7.3523 38.6542,-13.547 6.9299,-3.0973 14.0475,-6.7265 21.087,-11.5289 3.5196,-2.4248 6.9611,-5.2405 10.168,-8.682 3.1755,-3.4102 6.1947,-7.6025 7.8841,-12.9056 0.8761,-2.6749 1.2984,-5.3811 1.2045,-8.541 -0.032,-0.5633 -0.015,-1.0012 -0.078,-1.6739 l -0.3755,-2.409 c -0.2972,-1.5956 -0.6884,-2.8471 -1.1732,-4.208 -1.9867,-5.2874 -5.1779,-9.6832 -8.682,-13.328 -7.0707,-7.3366 -15.3928,-12.4832 -23.8714,-17.098 -8.5255,-4.599 -17.4264,-8.4472 -26.4995,-12.0139 -9.073,-3.551 -18.365,-6.7265 -27.8134,-9.5579 -18.8657,-5.6941 -38.2163,-10.4965 -57.6449,-14.7828 -19.4601,-4.1141 -38.9828,-7.7433 -58.2551,-10.7937 -19.2723,-3.1442 -38.31,-5.5533 -56.7376,-7.8373 -18.412,-2.3308 -36.2763,-4.0045 -53.2023,-5.522 -16.9258,-1.5799 -32.9601,-2.6905 -47.7584,-3.5979 -14.7984,-0.9854 -28.3766,-1.5956 -40.4062,-2.0805 -12.0452,-0.5319 -22.5417,-0.7509 -31.1924,-0.9698 -8.635,-0.219 -15.4397,-0.219 -20.0701,-0.2817 -4.6304,0 -7.102,-0.015 -7.102,-0.015 0,0 2.4403,0.3443 7.0238,1.0012 4.599,0.6258 11.3255,1.533 19.898,2.6907 17.1136,2.2682 41.5482,5.522 70.8947,9.4171 14.6263,2.018 30.4884,4.1924 47.2579,6.5076 16.7537,2.3621 34.3835,5.037 52.6235,7.759 18.2242,2.7374 36.9803,5.9913 56.0179,9.2764 19.0221,3.3945 38.2944,7.0081 57.426,11.1379 19.1472,4.0358 38.1692,8.5411 56.5343,13.891 18.2867,5.4438 36.2606,11.1848 52.0758,19.0847 7.8842,3.9107 15.2208,8.4628 20.8524,13.672 2.8158,2.5967 4.9276,5.4594 6.1791,8.2596 0.2815,0.6727 0.5631,1.4861 0.7038,2.018 0.062,0.2503 0.1252,0.5005 0.219,0.7508 0.078,0.4067 0.1094,1.0481 0.1565,1.5487 0.094,1.1419 0.015,2.7219 -0.3911,4.0985 -0.704,2.8471 -2.4559,5.8036 -4.7399,8.4942 -2.2682,2.7219 -5.0214,5.2091 -7.8998,7.5556 -5.8348,4.6147 -12.2485,8.5099 -18.6152,11.8888 -12.7806,6.7109 -25.2481,11.8575 -36.3859,16.1438 -11.185,4.208 -21.0714,7.6494 -29.2527,10.34 -8.197,2.6907 -14.6577,4.7868 -19.0847,6.1478 -4.427,1.3922 -6.7734,2.1274 -6.7734,2.1274"
       style="fill:#fcf0f0;fill-opacity:1;fill-rule:nonzero;stroke:none;stroke-width:0.156431"
       id="path258" />
    <path
       d="m 864.35599,1532.5902 c 0,0 3.504,88.3367 84.2225,132.2314 l -10.8093,0.032 c 0,0 -83.722,-38.6698 -95.9862,-136.9712 l 22.573,4.7085"
       style="fill:#fcf0f0;fill-opacity:1;fill-rule:nonzero;stroke:none;stroke-width:0.156431"
       id="path260" />
    <path
       d="m 2189.5633,1527.1621 c 0,0 -2.7845,88.3837 -83.1431,132.9196 l 10.8093,-0.047 c 0,0 83.4092,-39.3582 94.8756,-137.7534 l -22.5418,4.8807"
       style="fill:#fcf0f0;fill-opacity:1;fill-rule:nonzero;stroke:none;stroke-width:0.156431"
       id="path262" />
    <path
       d="m 2351.9703,1510.7681 -17.708,5.7566 1.6581,-2.8783 14.9392,-9.3076 c 0,0 4.9902,-1.2828 4.6148,0 -0.3599,1.2983 -3.5041,6.4293 -3.5041,6.4293"
       style="fill:#869edb;fill-opacity:1;fill-rule:nonzero;stroke:none;stroke-width:0.156431"
       id="path264" />
    <path
       d="M 1302.4104,1407.1011 1146.1044,733.24222 989.78249,59.383326 1080.278,403.07843 l 90.4799,343.6951 180.9909,687.40587 -49.3384,-27.0783"
       style="fill:#869edb;fill-opacity:1;fill-rule:nonzero;stroke:none;stroke-width:0.156431"
       id="path266" />
    <path
       d="m 1752.1973,1407.1011 156.306,-673.85888 156.3217,-673.858894 -90.4954,343.695104 -90.4955,343.6951 -180.9754,687.40587 49.3386,-27.0783"
       style="fill:#869edb;fill-opacity:1;fill-rule:nonzero;stroke:none;stroke-width:0.156431"
       id="path268" />
    <path
       d="M 766.88365,455.9209 V 726.04639 L 652.87812,455.9209 Z m 0,-323.15567 V 299.44272 H 488.67069 V 445.86238 L 755.40162,1076.6714 H 933.87409 V 455.9209 h 68.23531 V 299.44272 H 933.87409 V 132.76523 H 766.88365"
       style="fill:#869edb;fill-opacity:1;fill-rule:nonzero;stroke:none;stroke-width:0.156431"
       id="path270" />
    <path
       d="m 1593.0128,894.36642 c -4.2706,0 -8.3222,-0.73524 -12.3424,-2.26826 -9.4798,-3.56663 -18.8813,-15.14254 -27.1565,-33.445 L 1406.2182,532.91637 c -8.2752,-18.3181 -10.7624,-33.00701 -7.1959,-42.48674 3.6919,-9.7613 11.2475,-17.11357 23.1207,-22.47916 6.9924,-3.15992 13.6563,-4.77116 19.8041,-4.77116 v 0 c 4.2862,0 8.3222,0.75087 12.3424,2.26825 9.4954,3.56664 18.8813,15.14255 27.1565,33.445 l 147.3113,325.75245 c 8.2753,18.2868 10.7468,32.97571 7.1645,42.47109 -3.6761,9.7613 -11.2317,17.12922 -23.1049,22.4948 -6.9767,3.14428 -13.6407,4.75552 -19.8041,4.75552 z M 1454.4147,339.19189 c -25.467,0 -52.9363,6.58576 -81.6415,19.56956 -49.62,22.43224 -81.8761,54.3755 -95.861,94.92248 -13.9068,40.26541 -9.12,86.88192 14.2352,138.53552 l 141.8362,313.67595 c 23.3551,51.63795 55.1889,86.0216 94.6253,102.1809 16.6442,6.8204 34.4461,10.2775 52.9363,10.2775 25.467,0 52.9363,-6.5857 81.6415,-19.56952 49.6043,-22.41656 81.8448,-54.35981 95.861,-94.90685 13.9068,-40.29669 9.1199,-86.9132 -14.2196,-138.53551 L 1601.9763,451.65033 c -23.3552,-51.63796 -55.189,-86.02155 -94.6409,-102.18089 -16.6286,-6.82041 -34.4462,-10.27755 -52.9207,-10.27755"
       style="fill:#869edb;fill-opacity:1;fill-rule:nonzero;stroke:none;stroke-width:0.156431"
       id="path272" />
    <path
       d="M 2331.2275,455.9209 V 726.04639 L 2217.2204,455.9209 Z m 0,-323.15567 v 166.67749 h -278.213 v 146.41966 l 266.7309,630.80902 h 178.4725 V 455.9209 h 68.2353 V 299.44272 h -68.2353 V 132.76523 h -166.9904"
       style="fill:#869edb;fill-opacity:1;fill-rule:nonzero;stroke:none;stroke-width:0.156431"
       id="path274" />
    <path
       d="m 1455.7912,973.45801 c 0,-9.37022 15.2521,8.71327 10.8877,19.60089 -4.3489,10.8876 -10.8877,-6.5388 -10.8877,-19.60089"
       style="fill:#869edb;fill-opacity:1;fill-rule:nonzero;stroke:none;stroke-width:0.156431"
       id="path322" />
    <path
       d="m 1244.0772,612.05494 c 0,-9.37024 15.2521,8.71321 10.8876,19.60083 -4.3487,10.88762 -10.8876,-6.53883 -10.8876,-19.60083"
       style="fill:#869edb;fill-opacity:1;fill-rule:nonzero;stroke:none;stroke-width:0.156431"
       id="path324" />
    <path
       d="m 1570.1425,1073.6523 c -6.5388,4.3487 -20.6959,-1.7989 -4.3488,-9.6048 16.3314,-7.8217 32.6629,3.6134 26.1397,5.5219 -6.5388,1.8928 -21.7909,4.0829 -21.7909,4.0829"
       style="fill:#869edb;fill-opacity:1;fill-rule:nonzero;stroke:none;stroke-width:0.156431"
       id="path326" />
    <path
       d="m 1819.6347,529.83467 c -6.5388,4.36443 -20.6958,-1.78332 -4.3644,-9.60488 16.3315,-7.82157 32.6785,3.6292 26.1396,5.53766 -6.5388,1.89282 -21.7752,4.06722 -21.7752,4.06722"
       style="fill:#869edb;fill-opacity:1;fill-rule:nonzero;stroke:none;stroke-width:0.156431"
       id="path328" />
    <path
       d="m 1551.6367,1168.4026 c 0,0 -17.4265,-4.3643 -6.5389,-9.8081 10.8876,-5.4439 6.5389,9.8081 6.5389,9.8081"
       style="fill:#869edb;fill-opacity:1;fill-rule:nonzero;stroke:none;stroke-width:0.156431"
       id="path330" />
    <path
       d="m 1725.4318,344.43234 c 0,0 -17.4265,-4.34878 -6.5388,-9.79259 10.8876,-5.44381 6.5388,9.79259 6.5388,9.79259"
       style="fill:#869edb;fill-opacity:1;fill-rule:nonzero;stroke:none;stroke-width:0.156431"
       id="path332" />
    <path
       d="m 1576.6657,824.16007 c -7.6338,-4.91194 -10.8876,-11.43513 -4.3645,-10.90326 6.5388,0.54751 11.4352,2.15875 10.3558,5.42816 -1.095,3.28507 -5.9913,5.4751 -5.9913,5.4751"
       style="fill:#869edb;fill-opacity:1;fill-rule:nonzero;stroke:none;stroke-width:0.156431"
       id="path334" />
  </g>
</svg>
